<?xml version="1.0" encoding="UTF-8" standalone="no"?>
<!-- Created with Inkscape (http://www.inkscape.org/) -->

<svg
   version="1.1"
   id="svg2"
   width="109.62506"
   height="126.95859"
   viewBox="0 0 109.62506 126.95859"
   sodipodi:docname="7474048.eps"
   xmlns:inkscape="http://www.inkscape.org/namespaces/inkscape"
   xmlns:sodipodi="http://sodipodi.sourceforge.net/DTD/sodipodi-0.dtd"
   xmlns="http://www.w3.org/2000/svg"
   xmlns:svg="http://www.w3.org/2000/svg">
  <defs
     id="defs6" />
  <sodipodi:namedview
     id="namedview4"
     pagecolor="#ffffff"
     bordercolor="#000000"
     borderopacity="0.25"
     inkscape:showpageshadow="2"
     inkscape:pageopacity="0.0"
     inkscape:pagecheckerboard="0"
     inkscape:deskcolor="#d1d1d1"
     showgrid="false" />
  <g
     id="g10"
     inkscape:groupmode="layer"
     inkscape:label="Page 1"
     transform="matrix(1.3333333,0,0,-1.3333333,332.56512,378.76167)">
    <g
       id="g12"
       transform="scale(0.1)">
      <path
         d="m -1709.4605,2115.9131 c -20.75,73.79 -78.28,131.54 -151.99,152.58 l -135.97,38.79 h -85.72 -85.72 l -135.975,-38.79 c -73.707,-21.04 -131.239,-78.79 -151.989,-152.58 l -37.414,-62.38 c 106.863,-102.15 251.594,-165.01 411.098,-165.01 159.5,0 304.23,62.86 411.09,165 l -37.41,62.39"
         style="fill:#333232;fill-opacity:1;fill-rule:nonzero;stroke:none"
         id="path76" />
      <path
         d="m -2003.0405,2416.6931 h -160.21 l -25.25,-132.17 c 0,0 45.2,-47.38 105.36,-49.88 60.15,2.5 105.35,49.88 105.35,49.88 l -25.25,132.17"
         style="fill:#f4f6f5;fill-opacity:1;fill-rule:nonzero;stroke:none"
         id="path78" />
      <path
         d="m -1903.9405,2602.1431 c 0,-108.33 -80.23,-253.41 -179.2,-253.41 -98.98,0 -179.207,145.08 -179.207,253.41 0,108.33 80.227,196.16 179.207,196.16 98.97,0 179.2,-87.83 179.2,-196.16"
         style="fill:#ffffff;fill-opacity:1;fill-rule:nonzero;stroke:none"
         id="path80" />
      <path
         d="m -2239.6565,2587.0131 c -0.851,-21.17 -13.449,-49.06 -27.578,-48.49 -14.133,0.57 -24.445,29.38 -23.594,50.55 0.852,21.17 12.996,37.88 27.129,37.31 14.129,-0.57 24.895,-18.19 24.043,-39.37"
         style="fill:#ffffff;fill-opacity:1;fill-rule:nonzero;stroke:none"
         id="path82" />
      <path
         d="m -1878.7605,2588.9031 c 0.72,-21.17 -9.78,-49.92 -23.91,-50.4 -14.14,-0.47 -26.55,27.5 -27.27,48.67 -0.72,21.18 10.15,38.73 24.29,39.21 14.13,0.48 26.17,-16.3 26.89,-37.48"
         style="fill:#ffffff;fill-opacity:1;fill-rule:nonzero;stroke:none"
         id="path84" />
      <path
         d="m -2221.5005,2790.7631 c -30.652,-69.96 94.3,-66.24 129.44,-62.07 8.77,1.04 18.42,3.94 27.08,2.43 9.63,-1.67 19.07,-6.7 29.11,-8.25 21.86,-3.38 44.51,-1.7 65.56,5.1 4.82,1.55 10.2,3.34 14.74,1.11 2.75,-1.34 4.64,-3.93 6.39,-6.45 8.26,-11.9 15.92,-24.5 19.7,-38.48 5.36,-19.79 2.59,-40.71 1.53,-61.18 -0.66,-12.7 -1.58,-57.67 14.86,-60.68 2.5,21.3 4.96,42.74 7.44,64.09 0,0 17.8,64.37 11.52,98.06 -9.81,52.63 -47.93,117.86 -200.1,116.24 -105.79,-1.13 -127.187,-49.74 -127.27,-49.92"
         style="fill:#333232;fill-opacity:1;fill-rule:nonzero;stroke:none"
         id="path86" />
      <path
         d="m -2177.8105,2753.6931 c -0.3,-1.67 -1.12,-3.26 -2.58,-4.73 -3.66,-3.68 -9.13,-4.66 -13.97,-6.53 -15.39,-5.92 -24.854,-21.1 -33.218,-35.31 -5.375,-9.13 -10.89,-18.71 -11.558,-29.28 -0.918,-14.48 7.14,-27.14 9.086,-41.12 1.531,-11.02 -1.102,-21.11 -4.125,-31.62 -1.41,-4.89 -12.106,-47.1 -20.809,-42.76 l -7.426,64.04 c 0,0 -17.797,64.37 -11.519,98.06 6.066,32.56 22.176,72.19 62.679,61.13 8.28,-2.26 35.69,-19.29 33.44,-31.88"
         style="fill:#333232;fill-opacity:1;fill-rule:nonzero;stroke:none"
         id="path88" />
    </g>
  </g>
</svg>
