<?xml version="1.0" encoding="UTF-8" standalone="no"?>
<!-- Created with Inkscape (http://www.inkscape.org/) -->

<svg
   version="1.1"
   id="svg2"
   width="666.66663"
   height="666.66669"
   viewBox="0 0 666.66663 666.66669"
   sodipodi:docname="4781855.eps"
   xmlns:inkscape="http://www.inkscape.org/namespaces/inkscape"
   xmlns:sodipodi="http://sodipodi.sourceforge.net/DTD/sodipodi-0.dtd"
   xmlns="http://www.w3.org/2000/svg"
   xmlns:svg="http://www.w3.org/2000/svg">
  <defs
     id="defs6">
    <clipPath
       clipPathUnits="userSpaceOnUse"
       id="clipPath64">
      <path
         d="m 4014.67,556.871 756.09,2077.119 c -123.31,-118.85 -206.83,-243.15 -377.19,-320.09 -197.94,-89.41 -417.2,-118.13 -633.22,-140.71 144.37,-135.96 258.52,-312.87 283.6,-509.6 25.09,-196.72 -52.24,-412.38 -219.02,-519.69 -185.3,-119.25 -424.94,-85.17 -644.27,-106.46 -25.28,-2.45 -50.42,-5.88 -75.46,-9.85 l -103.18,-338.52 401.22,1316.49 c -77.12,402.11 158.44,823.16 219.04,878.09 20.19,18.32 164.6,24.42 348.24,24.42 367.21,0 891.12,-24.42 891.12,-24.42 L 4014.67,556.871"
         id="path62" />
    </clipPath>
    <clipPath
       clipPathUnits="userSpaceOnUse"
       id="clipPath82">
      <path
         d="M 4014.67,556.871 3002.02,689.07 3105.2,1027.59 c 25.04,3.97 50.18,7.4 75.46,9.85 219.33,21.29 458.97,-12.79 644.27,106.46 166.78,107.31 244.11,322.97 219.02,519.69 -25.08,196.73 -139.23,373.64 -283.6,509.6 216.02,22.58 435.28,51.3 633.22,140.71 170.36,76.94 253.88,201.24 377.19,320.09 L 4014.67,556.871"
         id="path80" />
    </clipPath>
  </defs>
  <sodipodi:namedview
     id="namedview4"
     pagecolor="#ffffff"
     bordercolor="#000000"
     borderopacity="0.25"
     inkscape:showpageshadow="2"
     inkscape:pageopacity="0.0"
     inkscape:pagecheckerboard="0"
     inkscape:deskcolor="#d1d1d1"
     showgrid="false" />
  <g
     id="g10"
     inkscape:groupmode="layer"
     inkscape:label="Page 1"
     transform="matrix(1.3333333,0,0,-1.3333333,0,666.66665)">
    <g
       id="g12"
       transform="scale(0.1)">
      <g
         id="g1286">
        <path
           d="M 0,0 H 5000 V 5000 H 0 Z"
           style="fill:#ffffff;fill-opacity:1;fill-rule:nonzero;stroke:none"
           id="path14" />
        <path
           d="m 1029.93,1568.63 c 11.05,18.07 -17.33,34.57 -28.34,16.57 C 914.117,1442.19 919.426,1272.08 920.875,1110.31 922.551,923.82 946.008,719.371 898.492,536.969 875.473,448.621 829.375,368.57 760.215,308.352 706.672,261.73 655.113,239.73 588.141,273.969 547.359,294.832 502.383,319.52 479.457,360.82 436.469,438.242 428.629,549.148 416.52,635.422 402.891,732.48 394.926,830.238 386.488,927.871 368.777,1132.85 348.699,1338.76 278.785,1533.69 c -7.074,19.74 -38.805,11.23 -31.644,-8.72 72.363,-201.78 90.781,-414.81 109.093,-626.861 8.676,-100.519 17.731,-201.078 32.965,-300.839 12.813,-83.961 20.977,-195.801 70.946,-267.59 36.347,-52.219 124.55,-107.45 189.066,-108.758 74.543,-1.524 143.23,65.469 186.879,118.828 117.609,143.801 121.367,332.539 119.945,509.5 -1.012,125.941 -4.297,252.04 -2.816,377.98 1.39,118.8 13.476,238.02 76.711,341.4"
           style="fill:#4d88cf;fill-opacity:1;fill-rule:nonzero;stroke:none"
           id="path16" />
        <path
           d="m 225.004,749.469 c -5.59,85.179 -5.863,170.59 -5.859,255.921 0.003,166.7 0.304,333.41 0.457,500.11 0.015,21.11 -32.805,21.15 -32.825,0 -0.234,-258.1 -12.695,-519.789 6.907,-777.309 8.871,-116.519 41.328,-244.07 -6.664,-356.07 C 161.633,312.871 116.973,266.402 52.0703,253.621 34.7461,250.211 17.3516,249.469 0,250.5 v -32.719 c 38.5117,-2.121 77.1133,3.039 112.074,21.121 102.567,52.989 134.293,176.258 132.649,282.969 -1.172,76.121 -14.735,151.699 -19.719,227.598"
           style="fill:#4d88cf;fill-opacity:1;fill-rule:nonzero;stroke:none"
           id="path18" />
        <path
           d="m 314.219,1857.8 -61.508,14.3 298.172,1283.22 61.512,-14.29 L 314.219,1857.8"
           style="fill:#1a203f;fill-opacity:1;fill-rule:nonzero;stroke:none"
           id="path20" />
        <path
           d="m 414.922,1834.4 -61.508,14.3 298.172,1283.22 61.512,-14.29 L 414.922,1834.4"
           style="fill:#1a203f;fill-opacity:1;fill-rule:nonzero;stroke:none"
           id="path22" />
        <path
           d="m 631.273,3184.96 16.586,60.92 1271.131,-346.1 -16.58,-60.93 -1271.137,346.11"
           style="fill:#1a203f;fill-opacity:1;fill-rule:nonzero;stroke:none"
           id="path24" />
        <path
           d="m 604.109,3085.21 16.594,60.92 1271.137,-346.11 -16.6,-60.92 -1271.131,346.11"
           style="fill:#1a203f;fill-opacity:1;fill-rule:nonzero;stroke:none"
           id="path26" />
        <path
           d="m 1898.99,2757.76 25.18,92.45 288.09,-78.44 -25.17,-92.45 -288.1,78.44"
           style="fill:#1a203f;fill-opacity:1;fill-rule:nonzero;stroke:none"
           id="path28" />
        <path
           d="M 410.902,1536.46 H 279.223 v 351.95 h 131.679 v -351.95"
           style="fill:#1a203f;fill-opacity:1;fill-rule:nonzero;stroke:none"
           id="path30" />
        <path
           d="m 476.27,1891.53 c 0,-72.46 -58.743,-131.2 -131.207,-131.2 -72.465,0 -131.208,58.74 -131.208,131.2 0,72.47 58.743,131.21 131.208,131.21 72.464,0 131.207,-58.74 131.207,-131.21"
           style="fill:#1f4679;fill-opacity:1;fill-rule:nonzero;stroke:none"
           id="path32" />
        <path
           d="m 395.688,1891.53 c 0,-27.96 -22.665,-50.62 -50.625,-50.62 -27.958,0 -50.625,22.66 -50.625,50.62 0,27.96 22.667,50.63 50.625,50.63 27.96,0 50.625,-22.67 50.625,-50.63"
           style="fill:#709cd9;fill-opacity:1;fill-rule:nonzero;stroke:none"
           id="path34" />
        <path
           d="m 765.574,3170.63 c 0,-72.46 -58.742,-131.2 -131.211,-131.2 -72.461,0 -131.203,58.74 -131.203,131.2 0,72.47 58.742,131.21 131.203,131.21 72.469,0 131.211,-58.74 131.211,-131.21"
           style="fill:#1f4679;fill-opacity:1;fill-rule:nonzero;stroke:none"
           id="path36" />
        <path
           d="m 684.988,3170.63 c 0,-27.95 -22.664,-50.62 -50.625,-50.62 -27.957,0 -50.617,22.67 -50.617,50.62 0,27.96 22.66,50.63 50.617,50.63 27.961,0 50.625,-22.67 50.625,-50.63"
           style="fill:#709cd9;fill-opacity:1;fill-rule:nonzero;stroke:none"
           id="path38" />
        <path
           d="m 2038.37,2831.32 c 15.47,-70.79 -29.37,-140.72 -100.16,-156.2 -70.8,-15.47 -140.73,29.37 -156.2,100.17 -15.48,70.79 29.37,140.72 100.16,156.2 70.79,15.47 140.73,-29.37 156.2,-100.17"
           style="fill:#1f4679;fill-opacity:1;fill-rule:nonzero;stroke:none"
           id="path40" />
        <path
           d="m 1959.64,2814.12 c 5.98,-27.32 -11.33,-54.3 -38.64,-60.27 -27.31,-5.97 -54.3,11.33 -60.27,38.65 -5.97,27.31 11.34,54.29 38.65,60.26 27.31,5.97 54.29,-11.33 60.26,-38.64"
           style="fill:#709cd9;fill-opacity:1;fill-rule:nonzero;stroke:none"
           id="path42" />
        <path
           d="m 345.063,1602.01 c -129.555,0 -234.583,-58.69 -234.583,-131.08 h 469.168 c 0,72.39 -105.031,131.08 -234.585,131.08"
           style="fill:#1f4679;fill-opacity:1;fill-rule:nonzero;stroke:none"
           id="path44" />
        <path
           d="m 2520.33,2591.59 c -43.31,-26.53 -122.92,24.62 -177.82,114.24 -54.89,89.63 -64.28,183.79 -20.97,210.32 43.32,26.53 252.53,141.66 338.9,-5.82 99.77,-170.36 -96.79,-292.21 -140.11,-318.74"
           style="fill:#1a203f;fill-opacity:1;fill-rule:nonzero;stroke:none"
           id="path46" />
        <path
           d="m 2453.39,2776.59 c -36.95,60.33 -89.86,95.59 -120.79,81.6 l -0.22,0.35 -327.85,-200.81 c -30.3,-18.56 -23.73,-84.4 14.65,-147.09 38.39,-62.67 94.07,-98.44 124.36,-79.89 l 324.51,198.76 3.36,2.05 -0.22,0.35 c 26.52,21.2 19.16,84.34 -17.8,144.68"
           style="fill:#224784;fill-opacity:1;fill-rule:nonzero;stroke:none"
           id="path48" />
        <path
           d="m 2366.55,2758.85 c -3.13,7.73 -7.45,16.56 -13.35,26.19 -5.91,9.64 -11.8,17.49 -17.27,23.8 -7.5,8.66 -20.29,10.35 -30.05,4.37 l -246.63,-151.05 c -9.77,-5.99 -14.06,-18.17 -9.75,-28.79 3.14,-7.73 7.46,-16.54 13.35,-26.16 5.9,-9.63 11.78,-17.48 17.24,-23.79 7.51,-8.67 20.3,-10.38 30.08,-4.39 l 246.62,151.06 c 9.77,5.98 14.06,18.14 9.76,28.76"
           style="fill:#345eb3;fill-opacity:1;fill-rule:nonzero;stroke:none"
           id="path50" />
        <path
           d="m 2143.54,2430.75 c -30.29,-18.55 -85.97,17.22 -124.36,79.89 -38.38,62.69 -44.95,128.53 -14.65,147.09 30.29,18.55 85.97,-17.21 124.36,-79.89 38.39,-62.68 44.95,-128.53 14.65,-147.09"
           style="fill:#1a203f;fill-opacity:1;fill-rule:nonzero;stroke:none"
           id="path52" />
        <path
           d="m 2355.19,2705.9 c -46.09,71.12 -127.53,103.22 -181.9,71.68 -13.98,-8.11 -24.23,-22.11 -31.82,-35.97 41.79,-7.39 84.78,-34.31 114.04,-79.47 34.24,-52.82 39.29,-112.29 17.37,-152.33 24.03,-4.25 47.49,-1.3 67.33,10.21 54.37,31.53 61.08,114.75 14.98,185.88"
           style="fill:#1a203f;fill-opacity:1;fill-rule:nonzero;stroke:none"
           id="path54" />
        <path
           d="m 2384.33,2929.84 c 0.38,-4.58 3.18,-8.57 6.05,-12.16 29.36,-36.76 75.28,-57.93 102.74,-96.11 17.97,-24.99 29.47,-58.27 58.04,-69.74 25.85,-10.37 57.16,3.46 72.23,26.89 15.07,23.43 16.05,53.74 8.99,80.68 -12.7,48.51 -51.08,89.49 -98.65,105.36 -26.33,8.78 -55.06,9.71 -82.06,3.52 -13.81,-3.17 -68.87,-20 -67.34,-38.44"
           style="fill:#212b58;fill-opacity:1;fill-rule:nonzero;stroke:none"
           id="path56" />
        <g
           id="g58">
          <g
             id="g60"
             clip-path="url(#clipPath64)">
            <path
               d="m 4014.67,556.871 756.09,2077.119 c -123.31,-118.85 -206.83,-243.15 -377.19,-320.09 -197.94,-89.41 -417.2,-118.13 -633.22,-140.71 144.37,-135.96 258.52,-312.87 283.6,-509.6 25.09,-196.72 -52.24,-412.38 -219.02,-519.69 -185.3,-119.25 -424.94,-85.17 -644.27,-106.46 -25.28,-2.45 -50.42,-5.88 -75.46,-9.85 l -103.18,-338.52 401.22,1316.49 c -77.12,402.11 158.44,823.16 219.04,878.09 20.19,18.32 164.6,24.42 348.24,24.42 367.21,0 891.12,-24.42 891.12,-24.42 L 4014.67,556.871"
               style="fill:#aa0000;fill-opacity:1;fill-rule:nonzero;stroke:none"
               id="path74" />
          </g>
        </g>
        <g
           id="g76">
          <g
             id="g78"
             clip-path="url(#clipPath82)">
            <path
               d="M 4014.67,556.871 3002.02,689.07 3105.2,1027.59 c 25.04,3.97 50.18,7.4 75.46,9.85 219.33,21.29 458.97,-12.79 644.27,106.46 166.78,107.31 244.11,322.97 219.02,519.69 -25.08,196.73 -139.23,373.64 -283.6,509.6 216.02,22.58 435.28,51.3 633.22,140.71 170.36,76.94 253.88,201.24 377.19,320.09 L 4014.67,556.871"
               style="fill:#800000;fill-opacity:0.918637;fill-rule:nonzero;stroke:none"
               id="path92" />
          </g>
        </g>
        <path
           d="m 2239.51,652.23 c 0,0 260.28,103.989 813.05,85.27 l 962.11,-86.98 -736.02,-54.348 h -958.48 l -80.66,56.058"
           style="fill:#792a74;fill-opacity:1;fill-rule:nonzero;stroke:none"
           id="path94" />
        <path
           d="m 3002.02,649.43 c 0,0 -511.39,37.75 -762.51,2.8 -69.72,-9.699 -127.1,-59.519 -147.26,-126.96 h 822.9 l 86.87,124.16"
           style="fill:#42173c;fill-opacity:1;fill-rule:nonzero;stroke:none"
           id="path96" />
        <path
           d="m 2092.25,335.879 h 909.77 V 525.27 h -909.77 c -52.3,0 -94.7,-42.399 -94.7,-94.688 0,-52.301 42.4,-94.703 94.7,-94.703"
           style="fill:#9b7a9d;fill-opacity:1;fill-rule:nonzero;stroke:none"
           id="path98" />
        <path
           d="M 4099.2,525.27 H 2915.15 c -52.3,0 -94.7,-42.399 -94.7,-94.688 0,-52.301 42.4,-94.703 94.7,-94.703 H 4162.33 L 4894.7,2856.26 4861.64,2883.65 4099.2,525.27"
           style="fill:#ffaaaa;fill-opacity:1;fill-rule:nonzero;stroke:none"
           id="path100" />
        <path
           d="m 2888.29,231.879 h 780.73 l 179.1,103.851 H 2709.2 l 179.09,-103.851"
           style="fill:#1b111f;fill-opacity:1;fill-rule:nonzero;stroke:none"
           id="path102" />
        <path
           d="m 3043.11,128.031 h 471.1 l 108.07,103.848 h -687.24 l 108.07,-103.848"
           style="fill:#1b111f;fill-opacity:1;fill-rule:nonzero;stroke:none"
           id="path104" />
        <path
           d="M 3326.12,0 V 128.031 H 3144.36 V 0 h 181.76"
           style="fill:#a782aa;fill-opacity:1;fill-rule:nonzero;stroke:none"
           id="path106" />
        <path
           d="m 2822.62,608.16 c 444.42,133.531 1092.82,50.442 1192.05,42.36 1.07,-0.098 2.11,-0.54 3.17,-0.731 l 437.49,1399.831 c 0,0 -1.31,872.44 406.31,834.03 L 4099.2,525.27 H 2761.44 c 0,38.07 24.71,71.949 61.18,82.89"
           style="fill:#2b0000;fill-opacity:0.782779;fill-rule:nonzero;stroke:none"
           id="path108" />
        <path
           d="M 1993.66,0 H 2275 c -23.96,149.191 -56.24,293.781 -72.58,467.02 227.75,41.449 524.18,150.492 736.3,243.191 78.38,34.238 146.28,119.289 210.54,175.738 64.26,56.442 114.19,133.471 122.31,218.611 8.12,85.15 -32.31,177.19 -108.78,215.52 -187.52,94 -457.52,-135.25 -605.34,-227.56 -207.06,-129.301 -410.31,-264.711 -609.39,-405.989 -13.26,-9.402 -26.85,-19.211 -35.46,-32.992 -10.77,-17.25 -12.42,-38.508 -13.14,-58.84 -6.22,-176.84 35.51,-351.457 76.97,-523.4802 5.72,-23.7383 11.49,-47.4805 17.23,-71.2188"
           style="fill:#213663;fill-opacity:1;fill-rule:nonzero;stroke:none"
           id="path110" />
        <path
           d="m 3162.79,1320.08 c -121.7,61 -278.09,-14.14 -413.33,-99.64 1.85,-4.58 3.36,-9.4 4.09,-14.73 7.06,-51.46 -19.66,-101.3 -49.59,-143.76 -106.2,-150.739 -266.18,-262.759 -444.16,-311.001 29.43,-11.801 62.59,-5.429 94.24,-7.258 31.65,-1.832 68.04,-18.179 72.11,-49.632 4.18,-32.258 -27.78,-57.039 -57.42,-70.438 -115.97,-52.41 -249.04,-44.402 -375.98,-35.379 91.87,-63.383 123.26,-183.293 139.09,-293.773 13.42,-93.578 20.58,-188.387 14.71,-282.7385 C 2146.31,7.82031 2146.02,3.91016 2145.74,0 H 2275 c -23.96,149.191 -56.24,293.781 -72.58,467.02 227.75,41.449 524.18,150.492 736.3,243.191 78.38,34.238 146.28,119.289 210.54,175.738 64.26,56.442 114.19,133.471 122.31,218.611 8.12,85.15 -32.31,177.19 -108.78,215.52"
           style="fill:#1b2646;fill-opacity:1;fill-rule:nonzero;stroke:none"
           id="path112" />
        <path
           d="m 2677.7,28.0313 c 1.71,-9.3321 3.31,-18.67974 4.94,-28.0313 h 276.65 c 1.08,93.5313 4.16,187 6.93,280.48 1.51,51.04 -20.26,213.372 24.58,238.629 42.06,23.661 154.88,6.153 204.18,12.782 204.07,27.461 458.68,65.371 485.13,314.757 15.92,150.063 -6.5,304.032 -64.52,443.332 -88.49,6.51 -177.83,1.23 -264.96,-15.52 -39.66,-7.61 -78.65,-20.23 -118,-24.08 -27.09,-2.65 -73.12,8.88 -94.16,-15.46 -19.07,-22.05 2.22,-90.16 -2.57,-119.33 -7.67,-46.55 -30.18,-90.96 -64.88,-123.149 -36.89,-34.211 -84.31,-54.25 -129.85,-75.632 C 2834.44,866.68 2732.83,805.66 2638.42,735.02 c -27.35,-20.461 -54.86,-42.629 -70.84,-72.79 -31.31,-59.101 -10.93,-130.96 8.02,-195.089 42.59,-144.231 74.79,-291.289 102.1,-439.1097"
           style="fill:#213663;fill-opacity:1;fill-rule:nonzero;stroke:none"
           id="path114" />
        <path
           d="m 2921.56,756.25 c -2.64,1.352 -5.37,2.559 -8.24,3.531 2.72,-1.242 5.5,-2.34 8.24,-3.531"
           style="fill:#1b2646;fill-opacity:1;fill-rule:nonzero;stroke:none"
           id="path116" />
        <path
           d="m 3680.11,846.648 c 15.92,150.063 -6.5,304.032 -64.52,443.332 -88.49,6.51 -177.83,1.23 -264.96,-15.52 -39.66,-7.61 -78.65,-20.23 -118,-24.08 -27.09,-2.65 -73.12,8.89 -94.16,-15.46 -19.07,-22.05 2.22,-90.16 -2.57,-119.33 -6.55,-39.8 -24.04,-77.97 -50.66,-108.34 46.5,-5.86 94.6,-9.258 127.76,-23.191 40.34,-16.95 79.2,-41.93 101.63,-79.489 22.43,-37.57 24.44,-89.601 -4.03,-122.808 -16.37,-19.09 -40.3,-29.891 -64.07,-38.071 -104.88,-36.132 -223.14,-31.39 -324.97,12.559 33.28,-16.871 48.21,-62.121 36.5,-98.41 -12.64,-39.168 -49,-67.008 -88.04,-80.07 -39.03,-13.059 -80.98,-13.641 -122.14,-14.098 52.52,-72.012 85.32,-157.16 102.87,-244.551 15.4,-76.68 19.04,-158.082 -7.83,-231.5312 C 2831.34,55.9492 2814.66,27.2422 2795.35,0 c 76.55,0 163.94,0 163.94,0 1.08,93.5313 4.16,187 6.93,280.48 1.51,51.051 -20.26,213.372 24.58,238.629 42.06,23.661 154.88,6.153 204.18,12.782 204.07,27.461 458.68,65.371 485.13,314.757"
           style="fill:#1b2646;fill-opacity:1;fill-rule:nonzero;stroke:none"
           id="path118" />
        <path
           d="m 3014.58,2760.67 -30.32,18.77 c -86.49,-30.78 -152.33,-109.75 -191.36,-194.64 -39.03,-84.88 -55.62,-176.78 -75.95,-266.92 -24.82,-110.1 -55.74,-219.23 -92.56,-326.68 -6.27,-18.33 -12.92,-36.97 -24.51,-52.73 -16.38,-22.31 -40.97,-36.64 -64.8,-50.12 -118.72,-67.16 -239.09,-130.98 -360.91,-191.35 -62.48,-30.96 -128.01,-57.31 -189.39,-90.54 -35,-18.96 -49.62,-16.42 -44.86,-55.57 12.68,-103.71 248.21,-7.41 312.31,8.43 131.74,32.55 262.74,69.55 392.7,110.89 31.17,9.92 62.94,20.41 89.81,40.18 26.44,19.44 46.41,46.6 65.53,73.5 95.88,134.85 182.9,275.88 260.2,421.68 51.51,97.15 99.75,200.48 103.07,307.51 3.32,107.02 -50.04,218.39 -148.96,247.59"
           style="fill:#e54865;fill-opacity:1;fill-rule:nonzero;stroke:none"
           id="path120" />
        <path
           d="m 2841.7,2197.61 c 63.86,-13.2 129.98,-22.08 191.17,-43.09 9.33,16.95 18.55,33.96 27.6,51.05 51.51,97.15 99.76,200.48 103.07,307.51 3.32,107.02 -50.04,218.39 -148.96,247.59 l -30.32,18.77 c -86.49,-30.78 -152.33,-109.75 -191.36,-194.64 -39.03,-84.88 -55.62,-176.78 -75.95,-266.92 -5.49,-24.4 -11.41,-48.73 -17.51,-73.02 44.3,-23.22 93.34,-37.15 142.26,-47.25"
           style="fill:#ff0000;fill-opacity:1;fill-rule:nonzero;stroke:none"
           id="path122" />
        <path
           d="m 3014.58,2760.67 -30.32,18.77 c -39.35,-14.01 -74.38,-38.05 -104.59,-68.03 5.91,-50.1 28.12,-107.56 20.59,-152.05 -10.66,-62.96 -66.45,-123.16 -129.74,-114.69 49.45,-20.69 89.45,-62.91 107.42,-113.41 5.34,-15.01 8.64,-32.3 1.2,-46.4 -10.82,-20.49 -38.1,-24.39 -61.27,-24.98 -38.01,-0.96 -76.06,0.33 -113.92,3.74 -1.55,-6.25 -2.94,-12.52 -4.51,-18.76 44.3,-23.22 93.34,-37.15 142.26,-47.25 63.86,-13.2 129.98,-22.08 191.17,-43.09 9.33,16.95 18.55,33.96 27.6,51.05 51.51,97.15 99.76,200.48 103.07,307.51 3.32,107.02 -50.04,218.39 -148.96,247.59"
           style="fill:#d40000;fill-opacity:0.53;fill-rule:nonzero;stroke:none"
           id="path124" />
        <path
           d="m 3648.76,2268.46 c 10.99,-184.93 1.26,-365.09 11.67,-550.41 11.74,-209.16 23.48,-418.32 35.21,-627.49 -84.41,-63.86 -194.27,-87.32 -300.02,-82.77 -123.96,5.33 -238.92,53.48 -359.53,71.49 -27.15,4.05 -333.45,112.07 -300.51,152.52 179.15,219.97 210.1,524.96 225,798.06 11.84,217.24 -19.27,430.42 -28.43,647.77 -1.11,26.17 -1.21,54.67 14.63,75.53 8.9,11.73 21.88,19.59 34.81,26.64 69.94,38.16 172.52,41.4 251.18,49.42 51.91,5.3 108.3,4.56 161.9,-0.17 45.58,-4.03 119.79,-0.33 155.35,-33.61 12.75,-11.92 18.8,-29.19 24.02,-45.86 48.69,-155.25 65.01,-318.7 74.72,-481.12"
           style="fill:#ff0000;fill-opacity:1;fill-rule:nonzero;stroke:none"
           id="path126" />
        <path
           d="m 3660.43,1718.05 c -10.41,185.32 -0.68,365.48 -11.67,550.41 -9.71,162.42 -26.03,325.87 -74.72,481.12 -5.22,16.67 -11.27,33.94 -24.02,45.86 -5.46,5.12 -11.92,9.27 -18.97,12.8 -53.83,-32.17 -100.16,-79.13 -137.59,-138.6 -62.64,-99.52 -110,-208.63 -139.92,-322.35 -15.68,-59.61 -27.2,-121.95 -60.47,-173.84 -33.27,-51.91 -95.82,-91.31 -155.45,-75.66 93.66,-57.22 215.12,-66.21 316.18,-23.37 -11.14,-159.13 -89.02,-312.54 -210.92,-415.44 87.86,-24.65 193.55,-8.26 260.06,-70.75 58.04,-54.51 65.18,-153.42 133.16,-194.86 42.47,-25.9 98.67,-20.34 142.35,3.59 -6.01,107.03 -12.01,214.06 -18.02,321.09"
           style="fill:#d40000;fill-opacity:0.528816;fill-rule:nonzero;stroke:none"
           id="path128" />
        <path
           d="m 2923.59,1678.22 c 74.64,-9.04 146.57,-41.81 199.6,-95.21 -55.7,95.22 -112.36,192.95 -132.2,301.47 -13.54,73.98 -9.33,149.87 -7,225.03 4.48,144.34 1.87,288.88 -7.82,432.96 -3.88,57.81 0.52,149.88 -19.34,221 -3.66,-3.13 -7.12,-6.45 -10.05,-10.31 -15.84,-20.86 -15.74,-49.36 -14.63,-75.53 9.16,-217.35 40.27,-430.53 28.43,-647.77 -6.24,-114.49 -15.37,-234.56 -36.99,-351.64"
           style="fill:#ff0000;fill-opacity:0.53;fill-rule:nonzero;stroke:none"
           id="path130" />
        <path
           d="m 3424.6,2827.22 c -10.74,0.53 -20.91,1.03 -29.93,1.83 -53.6,4.73 -109.99,5.47 -161.9,0.17 -27.16,-2.77 -57.2,-5 -87.75,-8.26 -6.06,-11.97 -10.57,-25.81 -13.89,-42.02 -7.21,-35.22 -12.76,-90.99 13.06,-119.32 7.77,-8.52 18.19,-13.52 28.74,-16.87 43.57,-13.83 91.64,-1.61 130.27,24.48 38.64,26.09 68.87,64.86 94.31,106.06 10.47,16.96 20.34,34.92 27.09,53.93"
           style="fill:#f78d7d;fill-opacity:1;fill-rule:nonzero;stroke:none"
           id="path132" />
        <path
           d="m 3360.72,2770.8 c -10.37,93.16 -26.63,185.66 -48.67,276.76 -2.81,11.61 -7.05,24.82 -18.15,29.24 -25.61,10.14 -62.86,-1.97 -86.52,-12.6 -30.08,-13.5 -51.21,-19.64 -85.14,-23.74 -2.36,-0.28 -5.03,-0.76 -6.3,-2.77 -1.27,-2.02 -0.54,-4.64 0.22,-6.89 l 79.18,-334.51 c 52.06,-1.92 104.61,12.34 148.58,40.3 6.52,4.16 13.22,9.04 15.95,16.28 2.13,5.66 1.52,11.92 0.85,17.93"
           style="fill:#f78d7d;fill-opacity:1;fill-rule:nonzero;stroke:none"
           id="path134" />
        <path
           d="m 3255.04,2818.97 c 32.59,8.42 64.87,19.77 94.59,35.44 -9.73,64.89 -22.15,129.38 -37.58,193.15 -2.81,11.61 -7.05,24.82 -18.15,29.24 -25.61,10.14 -62.86,-1.97 -86.52,-12.6 -30.08,-13.5 -51.21,-19.64 -85.14,-23.74 -2.36,-0.28 -5.03,-0.76 -6.3,-2.77 -1.27,-2.02 -0.54,-4.64 0.22,-6.89 l 53.65,-226.65 c 28.27,2.51 56.87,7.49 85.23,14.82"
           style="fill:#e54865;fill-opacity:1;fill-rule:nonzero;stroke:none"
           id="path136" />
        <path
           d="m 3601.99,2800.64 c -19.51,7.94 -67.98,18.51 -89.24,14.92 -20.55,-3.47 -45.49,-27.76 -58.44,-44.1 -39.71,-50.06 -63.1,-93.28 -89.99,-151.79 -39.05,-84.88 -55.64,-176.77 -75.95,-266.92 -24.83,-110.09 -55.74,-219.22 -92.56,-326.67 -6.29,-18.34 -12.92,-36.97 -24.51,-52.74 -16.4,-22.3 -40.98,-36.64 -64.81,-50.12 -118.72,-67.16 -239.09,-130.97 -360.9,-191.35 -60.8,-30.12 -114.87,-66.6 -180.83,-57.73 -71.95,9.68 -146.41,39.39 -216.6,58.25 -18.8,5.06 -38.49,10.15 -57.52,5.99 -14.11,-3.08 -26.6,-11.02 -38.76,-18.8 -41.58,-26.62 -83.15,-53.25 -124.73,-79.87 l -0.27,-0.18 c -12.22,-7.9 -5.94,-26.86 8.61,-26.76 54.43,0.4 106.82,29.23 154.9,57.17 -24.25,-17 -44.47,-39.67 -58.77,-65.59 -6.15,-11.14 3.84,-24.12 16.27,-21.38 44.96,9.88 87.85,29.21 124.94,56.49 -28.71,-21.76 -51.18,-51.62 -64.48,-85.09 -4.59,-11.54 6.23,-22.98 18.13,-19.46 32.99,9.76 63.73,27.15 88.95,50.56 -17.04,-26.79 -23.73,-59.99 -18.38,-91.29 2.4,-14.01 389.53,90.86 426.59,100.02 131.75,32.56 262.75,69.54 392.71,110.89 31.16,9.91 62.94,20.42 89.8,40.17 26.44,19.45 46.42,46.61 65.53,73.5 95.89,134.86 182.91,275.89 260.2,421.69 51.51,97.15 99.76,200.48 103.07,307.5 1.91,61.46 -14.3,125.75 -50.77,175.85 -19.8,27.2 -44.6,61.55 -82.19,76.84"
           style="fill:#f78d7d;fill-opacity:1;fill-rule:nonzero;stroke:none"
           id="path138" />
        <path
           d="m 3466.93,2245.06 c 49.1,-8.23 95.97,-28.64 135.92,-58.31 9.83,17.82 19.5,35.72 29.03,53.7 51.51,97.15 99.76,200.48 103.07,307.5 1.91,61.46 -14.3,125.75 -50.77,175.85 -19.8,27.2 -44.6,61.55 -82.19,76.84 -19.51,7.94 -67.97,18.51 -89.24,14.92 -20.55,-3.47 -45.49,-27.76 -58.44,-44.1 -39.71,-50.06 -63.1,-93.28 -89.99,-151.79 -39.05,-84.88 -55.64,-176.77 -75.95,-266.92 -9.09,-40.33 -19.29,-80.46 -30.01,-120.5 69.53,12.63 139.41,24.4 208.57,12.81"
           style="fill:#ff2a2a;fill-opacity:1;fill-rule:nonzero;stroke:none"
           id="path140" />
        <path
           d="m 3466.93,2245.06 c 49.1,-8.23 95.97,-28.64 135.92,-58.31 9.83,17.82 19.5,35.72 29.03,53.7 1.05,1.96 2.08,3.94 3.12,5.92 -31.59,13.93 -63.54,27.05 -95.89,39.15 -68.8,25.74 -146.73,53.85 -176.83,120.85 -48.27,107.39 47.2,237.18 105.63,321.46 10.13,14.6 41.85,51.15 65.28,88 -7.94,0.63 -15.06,0.63 -20.44,-0.27 -20.55,-3.47 -45.49,-27.76 -58.44,-44.1 -39.71,-50.06 -63.1,-93.28 -89.99,-151.79 -39.05,-84.88 -55.64,-176.77 -75.95,-266.92 -9.09,-40.33 -19.29,-80.46 -30.01,-120.5 69.53,12.63 139.41,24.4 208.57,12.81"
           style="fill:#d40000;fill-opacity:0.53;fill-rule:nonzero;stroke:none"
           id="path142" />
        <path
           d="m 2705.73,3173 c 20.21,-84.51 83.09,-141.91 140.43,-128.19 57.36,13.72 87.46,93.34 67.25,177.85 -20.21,84.51 -83.09,141.91 -140.43,128.19 -57.35,-13.71 -87.46,-93.34 -67.25,-177.85"
           style="fill:#3e52ac;fill-opacity:1;fill-rule:nonzero;stroke:none"
           id="path144" />
        <path
           d="m 2721.18,3186.14 c 24.38,-101.94 100.21,-171.15 169.38,-154.62 69.17,16.55 105.48,112.59 81.11,214.52 -24.38,101.93 -100.21,171.15 -169.38,154.61 -69.17,-16.54 -105.48,-112.58 -81.11,-214.51"
           style="fill:#151b33;fill-opacity:1;fill-rule:nonzero;stroke:none"
           id="path146" />
        <path
           d="m 2754.43,3192.71 c 24.38,-101.93 100.21,-171.15 169.38,-154.61 69.17,16.54 105.49,112.58 81.11,214.51 -24.38,101.94 -100.21,171.16 -169.38,154.62 -69.17,-16.55 -105.48,-112.59 -81.11,-214.52"
           style="fill:#13172c;fill-opacity:1;fill-rule:nonzero;stroke:none"
           id="path148" />
        <path
           d="m 3477.58,3453.13 c 7.14,-26.26 13.13,-52.9 19.07,-79.43 17.34,-77.48 27.16,-153.93 28.66,-232.86 1.32,-69.09 -55.2,-142.42 -103.18,-186.69 -44.35,-40.91 -102.06,-64.57 -160.48,-79.67 -195.14,-50.43 -401.16,3.79 -446.44,217.14 -22.24,104.82 -54.45,212.18 -67.51,318.48 -8.3,67.51 6.84,137.4 38.3,197.37 34.27,65.32 81.44,99.55 147.17,130.19 42.32,19.73 87.79,33.05 134.41,36.95 77.89,6.52 157.47,-13.57 224,-54.6 66.54,-41.02 119.89,-102.55 152.93,-173.39 14.01,-30.03 24.38,-61.48 33.07,-93.49"
           style="fill:#f78d7d;fill-opacity:1;fill-rule:nonzero;stroke:none"
           id="path150" />
        <path
           d="m 3181.43,3099.86 c 8.27,-7.47 11.11,-19.07 13.54,-29.95 12.05,-53.91 2.56,-139.18 -65.92,-145.45 -40.51,-3.7 -63.65,21.6 -85.1,51.87 -9.32,13.13 -18.63,26.27 -27.94,39.4 -3.51,4.94 -20.97,20.67 -9.99,24.66 39.41,14.3 80.36,26.93 120.11,41.57 4.76,1.75 52.83,20.12 55.3,17.9"
           style="fill:#b92253;fill-opacity:1;fill-rule:nonzero;stroke:none"
           id="path152" />
        <path
           d="m 3194.75,3070.87 c -2.4,10.59 -5.29,21.74 -13.32,28.99 -2.47,2.22 -50.54,-16.15 -55.3,-17.9 -35.67,-13.14 -72.24,-24.71 -107.86,-37.27 9.54,-14.01 20.14,-28.41 38.08,-31.03 21.03,-3.07 46.93,15.66 65.83,24.25 24.19,10.98 48.38,21.97 72.57,32.96"
           style="fill:#ffffff;fill-opacity:1;fill-rule:nonzero;stroke:none"
           id="path154" />
        <path
           d="m 3138.56,3006.38 c -15.68,1.73 -28.45,-6.64 -40.3,-15.91 -13.61,-10.64 -26.54,-22.18 -38.2,-34.9 14.6,-16.66 31.38,-29.04 54.24,-31.14 6.19,7.51 12.42,14.98 18.39,22.66 8.36,10.79 25.74,26.8 27.04,41.02 1.13,12.36 -10.66,17.11 -21.17,18.27"
           style="fill:#ffffff;fill-opacity:1;fill-rule:nonzero;stroke:none"
           id="path156" />
        <path
           d="m 3126.51,2988.44 c -14.44,-15.31 -27.19,-33.04 -32.19,-53.48 -0.41,-1.7 -0.72,-3.43 -1.01,-5.17 10.34,-4.45 22.03,-6.58 35.74,-5.33 56.92,5.21 73.02,64.95 69.93,115.95 -27.22,-8.56 -55.64,-34.13 -72.47,-51.97"
           style="fill:#f03e6a;fill-opacity:1;fill-rule:nonzero;stroke:none"
           id="path158" />
        <path
           d="m 3193.77,2984.92 c -20.85,-16.46 -44.88,-28.88 -70.52,-35.83 -9.24,-2.5 -23.4,-4.12 -32.73,-1.67 -12.09,3.17 -10.02,14.23 -8.3,24.73 l -0.07,1.66 c -0.78,1.63 -3.26,0.48 -4.48,-0.86 -5.55,-6.06 -10.67,-13.45 -14.03,-21.31 16.83,-17.89 36.77,-29.79 65.41,-27.18 36.41,3.33 56.03,29.05 64.72,60.46"
           style="fill:#ffffff;fill-opacity:1;fill-rule:nonzero;stroke:none"
           id="path160" />
        <path
           d="m 3094.33,3330.22 c 4.12,10.99 10.88,22.08 21.71,30.94 23.12,18.89 63.2,28.77 92.19,28.24 59.68,-1.07 157.21,-57.38 69.98,-104.53 -15.62,-8.45 -33.09,-14.03 -50.51,-18.41 -25.26,-6.33 -50.78,-10.28 -76.14,-13.15 -19.54,-2.21 -50.93,-9.56 -60.34,5.37 -10.29,16.35 -4.13,52.28 3.11,71.54"
           style="fill:#ffffff;fill-opacity:1;fill-rule:nonzero;stroke:none"
           id="path162" />
        <path
           d="m 3151.56,3253.31 c 25.36,2.87 50.88,6.82 76.14,13.15 14.14,3.55 28.25,7.99 41.43,14.01 -0.67,3.77 -1.48,7.56 -2.58,11.34 -14.78,51.15 -62.87,82.19 -107.41,69.32 -42.89,-12.4 -66.73,-61.01 -55.23,-110.28 13.73,-3.2 33.67,0.88 47.65,2.46"
           style="fill:#1a203f;fill-opacity:1;fill-rule:nonzero;stroke:none"
           id="path164" />
        <path
           d="m 2953.04,3300.08 c -7.08,8.27 -16.04,15.58 -26.97,19.19 -23.29,7.7 -54.9,0.31 -74.82,-12 -41.01,-25.32 -87.06,-116.16 -8.41,-123.33 14.09,-1.29 28.35,0.78 42.13,3.92 19.96,4.56 39.18,11.38 57.89,19.13 14.41,5.97 39.02,12.12 39.82,29.49 0.86,19.02 -17.22,49.09 -29.64,63.6"
           style="fill:#ffffff;fill-opacity:1;fill-rule:nonzero;stroke:none"
           id="path166" />
        <path
           d="m 2942.86,3206.99 c -18.71,-7.75 -37.93,-14.57 -57.89,-19.13 -11.18,-2.55 -22.68,-4.29 -34.14,-4.2 -0.99,3.69 -1.87,7.45 -2.57,11.33 -9.38,52.41 12.07,100.17 47.92,106.67 34.53,6.26 69.75,-28.09 80.7,-77.46 -8.3,-8.5 -23.71,-12.94 -34.02,-17.21"
           style="fill:#1a203f;fill-opacity:1;fill-rule:nonzero;stroke:none"
           id="path168" />
        <path
           d="m 2926.5,3137.91 0.41,-2.38 c 4.87,-22.24 46.53,-33.07 66.73,-37.21 13.2,-2.7 26.23,-3.23 39.6,-3.03 5.93,0.09 33.94,10.26 35.2,9.79 -18.75,7 -37.51,14 -56.27,21 -15.89,5.93 -32.17,12.09 -44.83,23.37 -2.1,1.87 -4.21,4.1 -4.5,6.9 -0.3,2.8 1.28,5.41 2.79,7.8 18.42,29.24 34.31,61.68 34.9,96.25 0.57,34.56 -17.79,71.36 -50.3,83.1 0.82,-29.11 26.95,-47.21 26.81,-77.54 -0.11,-24.05 -10.2,-46.97 -22.4,-67.69 -9.42,-15.99 -30.93,-38.99 -28.14,-60.36"
           style="fill:#e54865;fill-opacity:1;fill-rule:nonzero;stroke:none"
           id="path170" />
        <path
           d="m 3466.85,3295.68 c -31.89,49.73 -84.42,89.15 -92.49,147.28 -4.37,31.41 5.32,64.64 -5.34,94.51 -7.5,21.05 -24.23,37.47 -41.88,51.17 -45.79,35.52 -103.51,58.11 -161.26,53.4 -88.72,-7.25 -164.13,-75.93 -253.05,-80.32 -47.05,-2.32 -98.3,17.07 -138.58,-15.04 -16.19,-12.9 -21.7,-34.85 -24.56,-55.35 -5.49,-39.3 -4.87,-79.44 1.83,-118.55 -16.21,17.18 -32.82,35 -41.04,57.14 -6.63,17.84 -7.33,37.32 -6.52,56.33 3.75,87.15 40.44,171.6 98.44,236.35 148.77,166.12 427.97,169.38 612.08,65.03 28.76,-16.3 56.16,-35.35 79.5,-58.77 30.3,-30.39 53.13,-67.52 71.63,-106.25 49.88,-104.46 69.46,-223.19 55.75,-338.14 -7.04,-59.08 -22.87,-117.07 -46.51,-171.66 -20.7,-47.83 -55.52,-80.88 -99.25,-109.04 15.29,41.35 13.16,91.43 17.5,135.35 4.51,45.64 5.31,94.33 -15.03,136.62 -3.3,6.87 -7.08,13.49 -11.22,19.94"
           style="fill:#30112d;fill-opacity:1;fill-rule:nonzero;stroke:none"
           id="path172" />
        <path
           d="m 3457.52,3348.1 c 5.96,12.22 13.61,24.68 27.23,31.68 15.4,7.91 36.25,7.16 53.07,0.46 16.83,-6.7 29.96,-18.62 39.58,-31.73 32.81,-44.74 26.29,-102.25 -1.62,-147.56 -7.44,-12.07 -16.76,-23.95 -30.96,-30.91 -18.01,-8.83 -40.76,-8.32 -62.11,-7.17 -6.06,0.32 -12.33,0.72 -17.76,3.05 -6.3,2.71 -10.66,7.66 -14.23,12.68 -35.56,50.04 -17.18,120.26 6.8,169.5"
           style="fill:#f78d7d;fill-opacity:1;fill-rule:nonzero;stroke:none"
           id="path174" />
        <path
           d="m 2786.61,3351.49 c -3.59,-8 -6.23,-16.4 -8.85,-24.78 -1.82,-5.82 -3.46,-12.75 0.33,-17.53 2.12,-2.68 5.55,-3.99 8.93,-4.55 12.59,-2.06 24.99,5.08 34.12,13.99 9.13,8.92 16.24,19.8 25.8,28.25 12.63,11.16 28.72,17.41 44.39,23.62 5.24,2.09 10.93,4.59 13.41,9.66 18.8,38.5 -31.89,37.32 -52.08,30.36 -28.64,-9.86 -53.55,-31.25 -66.05,-59.02"
           style="fill:#1a203f;fill-opacity:1;fill-rule:nonzero;stroke:none"
           id="path176" />
        <path
           d="m 3278.01,3463.4 c -10.56,5.34 -21.15,10.69 -32.61,15.15 -39.73,15.51 -89.28,18.65 -133.37,10.22 -31.1,-5.95 -94.95,-34.17 -38.04,-54.81 7.5,-2.72 16.74,-1.49 25.05,-0.18 24.84,3.94 50.24,8.1 75.63,6.25 19.23,-1.4 37.54,-6.2 56.64,-8.23 19.1,-2.02 40.7,-0.72 54.51,8.22 3.7,2.4 6.8,5.45 7.09,8.86 0.54,6.09 -7.56,10.82 -14.9,14.52"
           style="fill:#1a203f;fill-opacity:1;fill-rule:nonzero;stroke:none"
           id="path178" />
        <path
           d="m 3466.91,3357.75 c 4.19,-20.68 7.83,-41.48 11.05,-62.31 21.59,1.61 42.97,6.09 63.39,13.3 3.51,1.25 7.17,2.67 9.6,5.5 3.36,3.9 3.66,9.51 3.61,14.66 -0.46,50.57 -13.71,103.24 -25.22,152.39 -9.77,41.71 -20.5,81.91 -38.77,120.89 -24.5,52.24 -61.31,112.69 -104.95,150.85 -44.64,39.03 -101.37,71.11 -160.21,77.22 -90.56,9.42 -175.96,9.85 -263.98,-17.77 -58.7,-18.42 -114.25,-46.86 -163.23,-84.11 -48.36,-36.78 -97.35,-75.45 -101.64,-139.9 -0.35,-5.37 -0.48,-10.96 1.6,-15.93 5.07,-12.12 21.72,-15.58 33.91,-10.63 29,11.78 49.25,54.58 71.09,76.37 26.03,25.96 55.58,48.43 87.85,66.09 93.23,51.01 209.98,59.04 308.44,19.13 31.33,-12.7 64.32,-28.38 90.86,-49.46 26.32,-20.89 56.72,-37.8 79.25,-63.63 17.86,-20.48 30.44,-45.01 41.38,-69.89 25.71,-58.45 43.32,-120.1 55.97,-182.77"
           style="fill:#13172c;fill-opacity:1;fill-rule:nonzero;stroke:none"
           id="path180" />
        <path
           d="m 2902.01,3758.89 c -1.4,-2.52 -2.49,-5.85 -0.69,-8.11 0.96,-1.21 2.52,-1.77 4.01,-2.18 19.7,-5.4 40.08,3.36 59.8,8.67 13.11,3.53 119.54,17.17 100.56,45.14 -13.18,19.42 -77.56,3.58 -94.51,-1.13 -24.17,-6.7 -56.28,-19.33 -69.17,-42.39"
           style="fill:#1a203f;fill-opacity:1;fill-rule:nonzero;stroke:none"
           id="path182" />
        <path
           d="m 3633.13,3358.53 c 11.98,-112.82 -34.47,-210.24 -103.75,-217.59 -69.26,-7.35 -135.12,78.15 -147.09,190.97 -11.98,112.83 34.48,210.25 103.75,217.6 69.27,7.35 135.13,-78.16 147.09,-190.98"
           style="fill:#13172c;fill-opacity:1;fill-rule:nonzero;stroke:none"
           id="path184" />
        <path
           d="m 3680.42,3358.01 c 11.96,-112.82 -34.48,-210.24 -103.76,-217.59 -69.27,-7.35 -135.13,78.15 -147.1,190.97 -11.96,112.82 34.48,210.25 103.75,217.59 69.28,7.35 135.14,-78.15 147.11,-190.97"
           style="fill:#151b33;fill-opacity:1;fill-rule:nonzero;stroke:none"
           id="path186" />
        <path
           d="m 3684.63,3355.45 c 9.93,-93.54 -28.59,-174.31 -86.02,-180.41 -57.43,-6.09 -112.04,64.8 -121.96,158.34 -9.92,93.54 28.58,174.32 86.02,180.41 57.44,6.09 112.04,-64.8 121.96,-158.34"
           style="fill:#3e52ac;fill-opacity:1;fill-rule:nonzero;stroke:none"
           id="path188" />
        <path
           d="m 3159.34,3619.36 c -9.97,3.93 -18.84,4.62 -31.23,-5.34 -34.15,-27.44 -77.57,-43.13 -121.37,-43.85 -11.82,-0.2 -24.01,0.6 -35.1,-3.49 -8.9,-3.28 -16.36,-9.46 -24.14,-14.89 -31.12,-21.72 -69.86,-32.28 -107.71,-29.35 -14.62,-18.33 -29.77,-36.26 -45.41,-53.74 -11.03,-12.34 -22.64,-24.72 -37.43,-32.14 -18.78,-9.43 -40.62,-9.9 -61.64,-10.18 -15.07,-0.2 -30.87,-0.23 -44.18,6.82 -11.01,5.83 -19.12,15.92 -25.97,26.33 -16.87,25.61 -22.3,66.62 -19.91,96.5 3.09,38.49 17.36,76.14 41.24,106.55 2.35,-21.01 9.73,-41.44 21.35,-59.1 12.34,45.36 39.87,86.44 77.14,115.09 3.31,-17.86 6.62,-35.72 9.94,-53.58 43.74,36.16 90.57,68.61 139.8,96.86 0.19,-15.54 0.4,-31.08 0.6,-46.62 61.73,24.94 127.83,39.01 194.38,41.38 -6.25,-15.66 -12.49,-31.32 -18.73,-46.98 42.43,22.1 89.39,35.47 137.11,39.04 7.33,-15.98 23.65,-25.55 39,-34.1 33.96,-18.93 68.17,-30.79 95.55,-59.53 26.72,-28.06 36.29,-62.36 34.98,-101.45 -0.34,-10.3 -1.72,-21 -7.34,-29.65 -0.88,-1.35 -2.07,-2.75 -3.66,-2.8 -2.17,-0.08 -3.51,2.25 -4.35,4.24 -8.54,20.04 -16.14,46.44 -35.18,59.45 -18.34,12.54 -54.61,5.74 -76.43,8.19 -23.75,2.67 -47.18,8.26 -69.54,16.74 -8.52,3.23 -15.38,7.08 -21.77,9.6"
           style="fill:#5e0f35;fill-opacity:1;fill-rule:nonzero;stroke:none"
           id="path190" />
        <path
           d="M 5000,1470.93 H 0 v -359.37 h 5000 v 359.37"
           style="fill:#ffaaaa;fill-opacity:1;fill-rule:nonzero;stroke:none"
           id="path192" />
        <path
           d="M 5000,1111.56 H 0 V 875.051 h 5000 v 236.509"
           style="fill:#141529;fill-opacity:1;fill-rule:nonzero;stroke:none"
           id="path194" />
        <path
           d="M 11.0586,0 51.4219,875.051 H 0 V 0 h 11.0586"
           style="fill:#30274c;fill-opacity:1;fill-rule:nonzero;stroke:none"
           id="path196" />
        <path
           d="m 1137.88,0 40.36,875.051 H 811.547 L 851.902,0 h 285.978"
           style="fill:#141529;fill-opacity:1;fill-rule:nonzero;stroke:none"
           id="path198" />
        <path
           d="m 4585.47,0 40.36,875.051 h -366.7 L 4299.49,0 h 285.98"
           style="fill:#141529;fill-opacity:1;fill-rule:nonzero;stroke:none"
           id="path200" />
        <path
           d="M 5000,1397.59 H 3216.12 V 1206.9 H 5000 v 190.69"
           style="fill:#ff8080;fill-opacity:1;fill-rule:nonzero;stroke:none"
           id="path202" />
        <path
           d="M 2262.41,1521.35 1886,2476.69 H 628.695 l -24.586,-8.26 361.196,-916.71 39.805,-30.37 v 0 0 h 1257.3"
           style="fill:#101c2d;fill-opacity:1;fill-rule:nonzero;stroke:none"
           id="path204" />
        <path
           d="M 948.441,1470.93 H 2973.58 v 92.47 l -2025.139,31.2 v -123.67"
           style="fill:#101c2d;fill-opacity:1;fill-rule:nonzero;stroke:none"
           id="path206" />
        <path
           d="m 2241.51,1574.68 v -103.75 h 732.07 v 92.47 l -732.07,11.28"
           style="fill:#1a3557;fill-opacity:1;fill-rule:nonzero;stroke:none"
           id="path208" />
        <path
           d="m 852.988,1836.77 70.684,-179.4 594.148,819.32 H 1317.04 L 852.988,1836.77"
           style="fill:#122033;fill-opacity:1;fill-rule:nonzero;stroke:none"
           id="path210" />
        <path
           d="m 1594.09,2476.69 -643.563,-887.47 14.778,-37.5 24.422,-18.63 684.263,943.6 h -79.9"
           style="fill:#122033;fill-opacity:1;fill-rule:nonzero;stroke:none"
           id="path212" />
        <path
           d="m 2340.06,3275.61 h -943.81 v 1210 h 943.81 v -1210"
           style="fill:#e4e4e2;fill-opacity:1;fill-rule:nonzero;stroke:none"
           id="path214" />
        <path
           d="m 2121.07,3493.33 h -505.83 v 774.56 h 505.83 v -774.56"
           style="fill:#ffffff;fill-opacity:1;fill-rule:nonzero;stroke:none"
           id="path216" />
        <path
           d="M 5000,4098.34 H 3424.6 v 148.93 H 5000 v -148.93"
           style="fill:#e4e4e2;fill-opacity:1;fill-rule:nonzero;stroke:none"
           id="path218" />
        <path
           d="M 5000,5000 V 4247.3 H 4043.3 V 5000 H 5000"
           style="fill:#bebfbd;fill-opacity:1;fill-rule:nonzero;stroke:none"
           id="path220" />
        <path
           d="m 4892.3,4756.7 c 0,-187.8 -152.2,-340 -340,-340 -187.8,0 -340,152.2 -340,340 0,95.4 39.3,181.6 102.6,243.3 h 474.8 c 63.3,-61.7 102.6,-147.9 102.6,-243.3"
           style="fill:#e4e4e2;fill-opacity:1;fill-rule:nonzero;stroke:none"
           id="path222" />
        <path
           d="m 4630.76,4756.66 c 0,-43.32 -35.13,-78.46 -78.46,-78.46 -43.34,0 -78.46,35.14 -78.46,78.46 0,43.34 35.12,78.47 78.46,78.47 43.33,0 78.46,-35.13 78.46,-78.47"
           style="fill:#ffffff;fill-opacity:1;fill-rule:nonzero;stroke:none"
           id="path224" />
        <path
           d="M 1198.4,4822.36 H 427.523 c -81.902,0 -148.3,-66.4 -148.3,-148.3 0,-81.91 66.398,-148.3 148.3,-148.3 H 1198.4 c 81.9,0 148.3,66.39 148.3,148.3 0,81.9 -66.4,148.3 -148.3,148.3"
           style="fill:#b92253;fill-opacity:1;fill-rule:nonzero;stroke:none"
           id="path226" />
        <g
           id="g228"
           transform="scale(10)">
          <text
             xml:space="preserve"
             transform="matrix(1,0,0,-1,46.0234,461.113)"
             style="font-variant:normal;font-weight:900;font-size:21.5285px;font-family:Roboto;-inkscape-font-specification:Roboto-Black;writing-mode:lr-tb;fill:#ffffff;fill-opacity:1;fill-rule:nonzero;stroke:none"
             id="text232"><tspan
               x="0 14.854665 29.967672 35.341408 50.002319 56.503925"
               y="0"
               sodipodi:role="line"
               id="tspan230">ON AIR</tspan></text>
        </g>
      </g>
    </g>
  </g>
</svg>
