<?xml version="1.0" encoding="UTF-8" standalone="no"?>
<!-- Created with Inkscape (http://www.inkscape.org/) -->

<svg
   version="1.1"
   id="svg2"
   width="1000"
   height="666.66669"
   viewBox="0 0 1000 666.66669"
   sodipodi:docname="scientists.svg"
   xmlns:inkscape="http://www.inkscape.org/namespaces/inkscape"
   xmlns:sodipodi="http://sodipodi.sourceforge.net/DTD/sodipodi-0.dtd"
   xmlns="http://www.w3.org/2000/svg"
   xmlns:svg="http://www.w3.org/2000/svg">
  <defs
     id="defs6" />
  <sodipodi:namedview
     id="namedview4"
     pagecolor="#ffffff"
     bordercolor="#000000"
     borderopacity="0.25"
     inkscape:showpageshadow="2"
     inkscape:pageopacity="0.0"
     inkscape:pagecheckerboard="0"
     inkscape:deskcolor="#d1d1d1"
     showgrid="false" />
  <g
     id="g10"
     inkscape:groupmode="layer"
     inkscape:label="Page 1"
     transform="matrix(1.3333333,0,0,-1.3333333,0,666.66667)">
    <g
       id="g779">
      <path
         d="m 673.62998,392.85299 c -7.57,-32.94 -71.17,-66.97 -97.53,-92.35 -4.58,-4.41 -9.2,-9.5 -9.96,-15.81 -1.37,-11.25 9.62,-19.75 19.42,-25.44 9.8,-5.68 21.1,-13.3 20.92,-24.63 -0.07,-4.78 -2.31,-9.26 -4.9,-13.28 -10.14,-15.8 -25.95,-27.17 -42.57,-35.91 -29.03,-15.25 -61.22,-23.45 -93.41,-29.76 -55.29,-10.82 -111.47,-16.43 -167.65,-20.76 -58.3,-4.49 -117.1,-7.61 -175.1,-0.18 -18.05,2.31 -38.810197,7.79 -45.830097,24.57 -6.1203,14.64 1.25,31.3 9.9,44.6 25.100097,38.56 65.610097,58.34 98.450097,90.55 31.49,30.89 20.83,59.95 10.66,67.09 -33.3,23.36 22.63,53.01 87.73,71.99 19.87,5.79 40.6,10.58 59.9,13.9 49.75,8.55 90.03,7.27 81.82,-12.12 -17.55,-41.44 25.62,-32.01 36.4,-30.45 36.94,5.32 85.18,15.59 126.01,20.5 37.6,4.53 68.92,4.52 79.38,-8.05 6.64,-7.98 8.27,-16.18 6.36,-24.46"
         style="fill:#a790cf;fill-opacity:1;fill-rule:nonzero;stroke:none;stroke-width:0.1"
         id="path16" />
      <path
         d="m 587.88998,425.36299 c -2.32,-9.94 -8.8,-19.31 -16.81,-25.93 -23.69,-19.6 -59.42,-22.23 -79.28,-45.7 -7.28,-8.6 -11.75,-19.55 -12.57,-30.79 -0.36,-5.05 -0.03,-10.2 -1.32,-15.09 -2.86,-10.81 -12.99,-18.07 -23.18,-22.66 -21.1,-9.5 -44.88,-11.43 -67.99,-10.28 -8.36,0.42 -17.21,1.41 -23.83,6.53 -4.92,3.81 -8.01,9.48 -10.65,15.11 -3.46,7.4 -6.43,15.33 -5.97,23.48 0.96,17.04 16.12,29.55 22.76,45.28 2.44,5.79 3.46,13.14 -0.75,17.81 -2.17,2.42 -5.34,3.63 -8.33,4.92 -7.44,3.21 -14.57,7.48 -19.94,13.54 -5.38,6.06 -8.86,14.08 -8.32,22.17 0.61,8.99 5.96,16.89 11.95,23.68 49.75,8.55 90.03,7.27 81.82,-12.12 -17.55,-41.44 25.62,-32.01 36.4,-30.45 36.94,5.32 85.18,15.59 126.01,20.5"
         style="fill:#b5a2d8;fill-opacity:1;fill-rule:nonzero;stroke:none;stroke-width:0.1"
         id="path18" />
      <path
         d="m 566.13998,284.69299 c -1.37,-11.25 9.62,-19.75 19.42,-25.44 9.8,-5.68 21.1,-13.3 20.92,-24.63 -0.07,-4.78 -2.31,-9.26 -4.9,-13.28 -10.14,-15.8 -25.95,-27.17 -42.57,-35.91 -29.03,-15.25 -61.22,-23.45 -93.41,-29.76 -55.29,-10.82 -111.47,-16.43 -167.65,-20.76 -58.3,-4.49 -117.1,-7.61 -175.1,-0.18 -18.05,2.31 -38.810197,7.79 -45.830097,24.57 -6.1203,14.64 1.25,31.3 9.9,44.6 25.100097,38.56 65.610097,58.34 98.450097,90.55 31.49,30.89 20.83,59.95 10.66,67.09 -33.3,23.36 22.63,53.01 87.73,71.99 -4.78,-4.57 -9.28,-9.46 -13.43,-14.63 -8.09,-10.06 -15.14,-23.51 -10.11,-35.39 6.94,-16.38 31.45,-18.03 40.35,-33.43 8.12,-14.04 -0.76,-31.77 -11.19,-44.19 -14.38,-17.13 -32.13,-31.56 -43.98,-50.53 -8.04,-12.87 -12.82,-30.25 -4.2,-42.73 8.28,-11.98 24.88,-14.06 39.43,-14.59 76.39,-2.75 153.22,7.09 226.45,29.02 11.78,3.52 24.9,8.67 29.23,20.18 4.59,12.19 -2.95,25.48 -2.92,38.5 0.03,14.19 9.28,27.03 20.78,35.35 11.5,8.31 25.16,12.96 38.4,18.07 26.88,10.36 53.5,23.47 73.28,44.41 2.76,2.92 5.37,6.03 7.78,9.28 -7.57,-32.94 -71.17,-66.97 -97.53,-92.35 -4.58,-4.41 -9.2,-9.5 -9.96,-15.81"
         style="fill:#9684c9;fill-opacity:1;fill-rule:nonzero;stroke:none;stroke-width:0.1"
         id="path20" />
      <path
         d="m 442.73398,438.12699 c -3.588,-10.178 -0.147,-19.112 11.716,-19.109 6.544,10e-4 13.161,1.138 19.536,2.516 6.382,1.38 14.335,2.423 19.835,6.067 2.41,1.596 1.529,5.441 -1.491,5.503 -4.117,0.084 -8.015,-1.493 -11.954,-2.556 -4.587,-1.238 -9.205,-2.361 -13.882,-3.198 -4.36,-0.781 -9.124,-1.699 -13.58,-1.413 -6.336,0.407 -5.832,5.956 -4.937,10.745 0.642,3.436 -4.072,4.767 -5.243,1.445 v 0"
         style="fill:#b5a2d8;fill-opacity:1;fill-rule:nonzero;stroke:none;stroke-width:0.1"
         id="path22" />
      <path
         d="m 500.62098,431.97799 c 0.518,-1.436 1.303,-2.843 2.719,-3.591 0.526,-0.277 1.149,-0.544 1.726,-0.708 1.114,-0.316 2.201,-0.144 3.322,0.028 0.468,0.198 0.936,0.395 1.403,0.592 0.686,0.37 1.235,0.874 1.65,1.514 0.765,0.991 1.318,2.273 1.261,3.56 -0.046,1.043 -0.315,2.043 -0.802,2.966 -0.369,0.684 -0.874,1.234 -1.514,1.648 -0.567,0.519 -1.233,0.87 -1.998,1.052 -1.325,0.203 -2.178,0.341 -3.495,-0.035 -1.032,-0.295 -1.957,-0.784 -2.721,-1.548 -1.327,-1.327 -2.217,-3.633 -1.551,-5.478 v 0"
         style="fill:#a790cf;fill-opacity:1;fill-rule:nonzero;stroke:none;stroke-width:0.1"
         id="path24" />
      <path
         d="m 522.34998,432.72199 c 5.128,0 5.136,7.969 0,7.969 -5.128,0 -5.136,-7.969 0,-7.969 v 0"
         style="fill:#9684c9;fill-opacity:1;fill-rule:nonzero;stroke:none;stroke-width:0.1"
         id="path26" />
      <path
         d="m 614.76898,271.36699 c -3.551,11.592 -3.137,24.52 2.633,35.347 2.388,4.482 5.523,8.487 9.277,11.907 3.712,3.382 8.939,5.126 12.318,8.653 1.525,1.592 0.503,4.684 -1.889,4.561 -5.329,-0.272 -10.519,-4.754 -14.371,-8.197 -4.52,-4.04 -8.386,-9.008 -11.104,-14.433 -6.167,-12.306 -6.883,-26.419 -1.837,-39.209 1.188,-3.01 5.966,-1.875 4.973,1.371 v 0"
         style="fill:#b5a2d8;fill-opacity:1;fill-rule:nonzero;stroke:none;stroke-width:0.1"
         id="path28" />
      <path
         d="m 652.46698,335.25499 c 0.099,0.079 0.198,0.159 0.297,0.238 1.097,0.879 1.331,2.599 1.023,3.871 -0.007,0.03 -0.014,0.06 -0.022,0.091 -0.303,1.251 -1.416,2.364 -2.667,2.667 -0.03,0.007 -0.06,0.014 -0.09,0.022 -1.272,0.307 -2.993,0.074 -3.872,-1.024 -0.079,-0.099 -0.158,-0.197 -0.237,-0.296 -0.677,-0.845 -1.154,-1.658 -1.154,-2.784 0,-0.966 0.43,-2.12 1.154,-2.785 0.751,-0.689 1.735,-1.2 2.784,-1.153 0.35,0.047 0.698,0.094 1.047,0.141 0.667,0.187 1.246,0.525 1.737,1.012 v 0"
         style="fill:#a790cf;fill-opacity:1;fill-rule:nonzero;stroke:none;stroke-width:0.1"
         id="path30" />
      <path
         d="m 661.68298,345.62299 c 4.826,0 4.834,7.5 0,7.5 -4.825,0 -4.834,-7.5 0,-7.5 v 0"
         style="fill:#9684c9;fill-opacity:1;fill-rule:nonzero;stroke:none;stroke-width:0.1"
         id="path32" />
      <path
         d="m 139.06498,297.39799 c -0.12,-16.254 -13.069,-22.927 -24.392,-31.375 -6.579,-4.909 -13.0003,-10.049 -18.945997,-15.716 -6.7598,-6.443 -15.1012,-13.951 -18.6344,-22.774 -0.8863,-2.214 2.2695,-4.714 4.2008,-3.229 4.3164,3.318 7.6644,7.859 11.3156,11.882 3.5961,3.963 7.3898,7.737 11.307797,11.38 6.2792,5.841 12.8202,11.348 19.6242,16.565 11.155,8.553 24.086,18.265 21.785,34.115 -0.527,3.627 -6.236,2.641 -6.261,-0.848 v 0"
         style="fill:#b5a2d8;fill-opacity:1;fill-rule:nonzero;stroke:none;stroke-width:0.1"
         id="path34" />
      <path
         d="m 59.347683,190.22999 c 0.1586,-0.323 0.3066,-0.516 0.5484,-0.829 0.4418,-0.572 0.9551,-0.956 1.5363,-1.383 0.3922,-0.166 0.7836,-0.332 1.1758,-0.497 0.6543,-0.205 1.3086,-0.234 1.9625,-0.087 1.0328,0.138 2.1008,0.562 2.8262,1.353 0.5769,0.629 1.0027,1.36 1.2656,2.172 0.3441,1.063 0.1859,2.865 -0.4961,3.793 -0.6285,0.854 -1.2527,1.613 -2.2129,2.084 -0.9984,0.49 -1.959,0.724 -3.0785,0.573 -1.0133,-0.136 -2.0602,-0.552 -2.7727,-1.328 -0.566,-0.616 -0.9835,-1.334 -1.241,-2.13 -0.4035,-1.246 -0.0656,-2.596 0.4864,-3.721 v 0"
         style="fill:#9684c9;fill-opacity:1;fill-rule:nonzero;stroke:none;stroke-width:0.1"
         id="path36" />
      <path
         d="m 71.849983,203.71699 c 8.566,0 8.5801,13.312 0,13.312 -8.566,0 -8.5801,-13.312 0,-13.312 v 0"
         style="fill:#a790cf;fill-opacity:1;fill-rule:nonzero;stroke:none;stroke-width:0.1"
         id="path38" />
      <path
         d="m 654.34998,60.388988 c 0,-15.7488 -124.315,-28.516 -277.667,-28.516 -153.351,0 -277.666597,12.7672 -277.666597,28.516 0,15.7492 124.315597,28.5149 277.666597,28.5149 153.352,0 277.667,-12.7657 277.667,-28.5149"
         style="fill:#f1eee7;fill-opacity:1;fill-rule:nonzero;stroke:none;stroke-width:0.1"
         id="path40" />
      <path
         d="m 186.98898,80.538988 c -0.442,-3.0988 -3.395,-10.232 -2.312,-11.357 1.234,-1.282 28.311,-2.6488 39.188,-1.0211 5.177,0.6242 4.632,4.9883 -0.824,6.9883 -2.976,1.0918 -16.477,3.425 -21.66,5.5297 -1.225,3.7402 -2.45,7.4793 -3.676,11.2191 -0.159,0.4879 -0.337,1.002 -0.733,1.327 -0.497,0.407 -1.201,0.4101 -1.843,0.3929 -2.384,-0.0597 -4.778,-0.0437 -7.107,-0.3578 -1.237,-6.5871 -0.082,-6.066 -1.033,-12.7211"
         style="fill:#191b3e;fill-opacity:1;fill-rule:nonzero;stroke:none;stroke-width:0.1"
         id="path42" />
      <path
         d="m 147.51298,61.967888 c -0.418,-2.9648 -0.205,-6.4898 2.228,-8.2347 1.609,-1.1543 15.436,-1.9082 17.834,1.4117 2.364,3.2742 1.529,6.8492 1.232,8.9062 -1.424,9.8711 -1.263,16.6848 -2.687,26.5559 -3.494,-0.1129 -6.71,-0.3899 -10.185,0 -0.408,-3.1531 -0.637,-5.8379 -1.155,-9.007 -0.588,-3.5899 -6.807,-16.3598 -7.267,-19.6321"
         style="fill:#191b3e;fill-opacity:1;fill-rule:nonzero;stroke:none;stroke-width:0.1"
         id="path44" />
      <path
         d="m 170.25298,192.67399 c -3.424,-1.317 33.009,1.449 41.509,3.949 8.5,2.5 -12.92,51.348 -12.92,51.348 l -28.589,-55.297"
         style="fill:#d4d1c5;fill-opacity:1;fill-rule:nonzero;stroke:none;stroke-width:0.1"
         id="path46" />
      <path
         d="m 154.48098,162.25999 c -0.143,-15.408 -2.969,-60.0358 -0.91,-78.199902 6.477,-3.7871 14.936,-0.4519 14.936,-0.4519 5.6,28.125802 6.069,47.251802 11.669,75.377802 3.08,15.469 8.58,69.112 11.404,82.599 1.364,-0.33 2.37,0.33 3.733,0 0.661,-25.729 -1.981,-45.339 -3.551,-69.141 -1.996,-30.242 -3.942,-45.283 -5.107,-87.110102 7.757,-2.3027 12.187,-1.2738 14.199,0.727 6.211,18.821102 13.966,65.976102 17.054,88.747102 4.715,34.777 9.133,64.509 2.835,99.037 -10.501,-3.956 -55.705,-0.176 -66.756,-0.053 -2.026,-10.005 -1.248,-21.544 -2.023,-31.807 -1.037,-13.716 2.517,-52.46 2.517,-79.725"
         style="fill:#4941a1;fill-opacity:1;fill-rule:nonzero;stroke:none;stroke-width:0.1"
         id="path48" />
      <path
         d="m 221.52698,374.93099 c 6.484,-15.929 12.968,-31.857 19.452,-47.786 1.402,-3.444 2.806,-6.891 3.97,-10.422 1.298,-3.936 -11.087,-11.046 -15.595,-7.286 -9.253,7.718 -14.183,20.928 -21.181,30.738 -6.997,9.809 -12.626,21.149 -12.854,33.197 -0.036,1.904 0.081,3.879 0.951,5.573 5.296,10.319 21.881,4.279 25.257,-4.014"
         style="fill:#d4d1c5;fill-opacity:1;fill-rule:nonzero;stroke:none;stroke-width:0.1"
         id="path50" />
      <path
         d="m 261.39698,340.65299 c -3.015,-5.755 2.254,-8.479 6.744,-4.603 3.716,3.208 5.087,6.96 4.619,10.959 -2.516,-3.525 -6.498,-5.953 -11.363,-6.356"
         style="fill:#e8907a;fill-opacity:1;fill-rule:nonzero;stroke:none;stroke-width:0.1"
         id="path52" />
      <path
         d="m 265.23198,323.87199 c 1.577,2.137 5.652,9.498 5.593,12.153 0,0 -3.363,1.029 -5.78,2.89 -2.417,1.86 -5.161,3.464 -6.808,6.031 -0.684,-4.664 -2.282,-9.736 -6.387,-12.052 -4.145,-2.34 -9.415,-1.069 -13.953,-2.504 -11.11,-3.514 -16.039,-21.997 -2.016,-24.43 13.042,-2.262 22.802,9.032 29.351,17.912"
         style="fill:#d4d1c5;fill-opacity:1;fill-rule:nonzero;stroke:none;stroke-width:0.1"
         id="path54" />
      <path
         d="m 228.50798,316.29199 c 0.041,1.459 0.011,2.999 0.322,4.432 0.311,1.425 1.136,2.58 1.91,3.786 0.211,0.328 -0.227,0.811 -0.56,0.56 -2.812,-2.12 -2.826,-5.572 -2.516,-8.778 0.051,-0.532 0.829,-0.553 0.844,0 v 0"
         style="fill:#e3e0d6;fill-opacity:1;fill-rule:nonzero;stroke:none;stroke-width:0.1"
         id="path56" />
      <path
         d="m 232.29198,316.45699 c -0.904,2.49 -0.032,4.429 0.92,6.716 0.158,0.377 -0.387,0.796 -0.714,0.549 -2.3,-1.749 -2.196,-5.239 -1.001,-7.599 0.22,-0.434 0.964,-0.132 0.795,0.334 v 0"
         style="fill:#e3e0d6;fill-opacity:1;fill-rule:nonzero;stroke:none;stroke-width:0.1"
         id="path58" />
      <path
         d="m 184.26698,392.30999 -36.879,-20.004 c 0,0 15.179,-41.993 14.137,-59.732 -1.043,-17.74 0,-27.56 0,-27.56 l 55.565,6.112 c 0,0 1.223,28.987 0.677,45.172 -0.545,16.185 -2.182,43.514 -2.182,43.514 l -31.318,12.498"
         style="fill:#5f58b1;fill-opacity:1;fill-rule:nonzero;stroke:none;stroke-width:0.1"
         id="path60" />
      <path
         d="m 170.36398,395.94399 c 0.234,-2.704 -0.11,-4.433 -0.743,-5.774 -2.219,-4.695 17.978,-14.815 22.966,-13.367 2.426,0.704 5.973,6.905 5.877,9.429 -4.09,-0.45 -4.26,2.162 -6.312,5.729 -1.186,2.061 -1.646,4.449 -2.089,6.786 -0.717,3.787 -1.434,7.574 -2.151,11.362 -0.093,0.49 -0.207,1.019 -0.582,1.348 -0.355,0.312 -0.858,0.37 -1.329,0.414 -3.18,0.295 -17.655,3.965 -16.981,0.625 1.004,-4.973 1.103,-13.766 1.344,-16.552"
         style="fill:#d07769;fill-opacity:1;fill-rule:nonzero;stroke:none;stroke-width:0.1"
         id="path62" />
      <path
         d="m 172.48498,379.81199 c 0,0 8.179,-11.113 20.614,-6.786 12.435,4.327 4.755,14.965 4.755,14.965 l -5.761,4.516 c 0,0 3.684,-5.751 0.494,-15.704 0,0 -16.829,11.818 -20.102,9.116 -3.274,-2.701 0,-6.107 0,-6.107"
         style="fill:#5f58b1;fill-opacity:1;fill-rule:nonzero;stroke:none;stroke-width:0.1"
         id="path64" />
      <path
         d="m 143.11298,376.91199 c -1.614,-1.474 -3.194,-3.075 -4.061,-5.079 -0.946,-2.185 -0.96,-4.651 -0.811,-7.027 0.395,-6.307 1.834,-12.547 4.242,-18.39 2.199,-5.335 5.195,-10.337 7.046,-15.803 2.484,-7.332 2.811,-15.204 2.79,-22.945 -0.062,-22.896 -8.452,-93.771 -14.148,-115.947 14.105,-4.679 36.187,-4.156 50.863,-1.819 0.271,12.889 3.328,18.965 5.378,31.693 1.29,8.013 7.835,96.153 2.129,122.947 -0.343,1.615 -11.382,26.012 -16.691,36.21 -3.463,6.651 -4.761,13.279 -11.401,10.192 -6.3,-2.929 -20.215,-9.355 -25.336,-14.032"
         style="fill:#e3e0d6;fill-opacity:1;fill-rule:nonzero;stroke:none;stroke-width:0.1"
         id="path66" />
      <path
         d="m 195.97798,389.46199 c 6.088,-0.868 17.856,-5.425 20.662,-10.209 1.788,-3.048 2.279,-6.66 2.735,-10.165 2.873,-22.094 0.147,-44.294 1.746,-66.518 1.489,-20.707 10.811,-86.346 9.044,-107.03 -11.726,-2.333 -20.13,-1.85 -31.857,-4.183 0.126,6.98 -3.13,11.245 -3.896,30.238 -0.749,18.553 -0.439,53.842 -0.718,60.656 -0.983,24.051 -1.052,33.639 3.075,58.179 2.79,16.591 -0.586,33.593 -0.791,49.032"
         style="fill:#e3e0d6;fill-opacity:1;fill-rule:nonzero;stroke:none;stroke-width:0.1"
         id="path68" />
      <path
         d="m 198.78098,318.71799 c -0.142,-15.208 -0.33,-30.427 -0.828,-45.629 -0.497,-15.147 -2.362,-30.428 -2.374,-45.562 -0.001,-1.058 1.72,-1.367 1.909,-0.258 2.487,14.599 2.172,30.154 2.637,44.927 0.488,15.506 0.796,31.023 -0.015,46.522 -0.044,0.85 -1.322,0.862 -1.329,0 v 0"
         style="fill:#d4d1c5;fill-opacity:1;fill-rule:nonzero;stroke:none;stroke-width:0.1"
         id="path70" />
      <path
         d="m 162.48198,253.99399 c 3.264,-0.065 6.529,-0.143 9.793,-0.198 2.833,-0.047 5.848,-0.439 8.584,0.339 0.68,0.194 0.681,1.187 0,1.381 -2.716,0.773 -5.773,0.387 -8.584,0.339 -3.264,-0.055 -6.529,-0.132 -9.793,-0.198 -1.069,-0.022 -1.07,-1.64 0,-1.663 v 0"
         style="fill:#d4d1c5;fill-opacity:1;fill-rule:nonzero;stroke:none;stroke-width:0.1"
         id="path72" />
      <path
         d="m 210.98598,256.15699 c 3.215,-0.434 6.744,-0.545 9.956,-0.111 0.952,0.129 0.953,1.795 0,1.924 -3.212,0.434 -6.741,0.323 -9.956,-0.111 -0.843,-0.114 -0.843,-1.588 0,-1.702 v 0"
         style="fill:#d4d1c5;fill-opacity:1;fill-rule:nonzero;stroke:none;stroke-width:0.1"
         id="path74" />
      <path
         d="m 171.57898,346.61499 c 2.1,0.146 4.177,0.46 6.19,1.09 1.573,0.492 3.701,0.987 4.595,2.457 0.302,0.499 -0.097,1.062 -0.63,1.097 -1.582,0.102 -3.045,-1.025 -4.524,-1.526 -1.833,-0.622 -3.71,-1.064 -5.631,-1.302 -1.127,-0.141 -1.188,-1.898 0,-1.816 v 0"
         style="fill:#d4d1c5;fill-opacity:1;fill-rule:nonzero;stroke:none;stroke-width:0.1"
         id="path76" />
      <path
         d="m 182.64798,368.75999 c 1.992,4.756 0.138,6.739 3.289,10.821 2.388,-2.186 4.775,-4.37 7.162,-6.555 0.482,2.379 1.133,4.724 1.947,7.011 2.651,-2.359 3.647,-4.789 5.954,-7.484 1.247,4.39 1.875,8.058 0,13.08 -1.932,5.175 -5.017,6.677 -8.907,6.874 0.56,-4.678 0.027,-9.485 -1.546,-13.926 -4.071,2.478 -15.084,14.207 -20.296,19.207 0,0 -3.917,-4.568 -3.917,-7.829 0,-3.931 12.889,-17.406 16.314,-21.199"
         style="fill:#4941a1;fill-opacity:1;fill-rule:nonzero;stroke:none;stroke-width:0.1"
         id="path78" />
      <path
         d="m 251.04698,387.03699 -18.43,-59.298 1.608,-1.261 25.372,2.834 20.865,58.679 -29.415,-0.954"
         style="fill:#ea8b27;fill-opacity:1;fill-rule:nonzero;stroke:none;stroke-width:0.1"
         id="path80" />
      <path
         d="m 253.04698,387.03699 -18.822,-60.559 27.372,2.834 18.865,58.679 -27.415,-0.954"
         style="fill:#fab43b;fill-opacity:1;fill-rule:nonzero;stroke:none;stroke-width:0.1"
         id="path82" />
      <path
         d="m 272.75998,347.00899 c -0.221,1.889 -0.849,3.833 -1.842,5.802 -1.295,2.567 -2.671,3.855 -4.239,6.265 -0.775,1.192 -2.413,3.691 -3.455,2.723 -0.533,-2.279 2.393,-5.548 3.455,-7.634 -2.408,1.363 -9.221,5.047 -10.042,4.52 -0.723,-1.507 0.905,-2.539 2.321,-3.428 1.416,-0.889 5.729,-3.992 3.311,-3.986 -3.362,0.836 -10.164,4.395 -10.086,2.507 1.243,-2.189 3.738,-2.973 5.82,-4.386 1.588,-1.078 4.43,-2.383 4.492,-3.445 -1.743,-0.625 -1.817,-0.28 -3.651,-0.03 -1.835,0.25 -4.837,0.468 -3.746,-0.971 0.499,-0.657 8.057,-3.739 8.778,-3.896 6.699,-2.388 7.903,2.204 8.884,5.959"
         style="fill:#e8907a;fill-opacity:1;fill-rule:nonzero;stroke:none;stroke-width:0.1"
         id="path84" />
      <path
         d="m 260.39298,389.33899 -1.371,-4.954 10.283,0.56 1.469,4.724 -3.018,-0.109 c 0,0 0.542,2.805 -1.64,2.714 -2.183,-0.091 -2.657,-2.714 -2.657,-2.714 l -3.066,-0.221"
         style="fill:#d4d1c5;fill-opacity:1;fill-rule:nonzero;stroke:none;stroke-width:0.1"
         id="path86" />
      <path
         d="m 171.43198,410.14099 c 1.138,-7.756 5.954,-13.65 10.505,-16.564 4.551,-2.914 10.828,-3.772 15.275,-0.703 1.835,1.267 3.227,3.095 4.273,5.064 2.094,3.939 2.874,8.428 3.503,12.844 0.774,5.435 -1.045,8.355 0.228,15.1 1.018,5.394 2.421,10.549 -1.452,14.439 -2.681,2.694 -10.794,6.159 -14.296,7.638 -3.704,1.564 -7.83,2.778 -11.707,1.714 -3.307,-0.907 -5.952,-3.341 -8.355,-5.786 -11.172,-11.368 -0.018,-19.824 2.026,-33.746"
         style="fill:#e8907a;fill-opacity:1;fill-rule:nonzero;stroke:none;stroke-width:0.1"
         id="path88" />
      <path
         d="m 183.48298,430.97899 c 10.526,-0.925 10.726,1.132 15.855,1.935 6.21,0.972 11.086,-2.328 12.256,3.847 -4.023,2.407 -4.776,6.01 -9.187,9.997 -4.235,3.828 -10.3,6.008 -22.231,5.292 -8.327,-0.499 -16.336,-3.831 -14.044,-11.852 -2.709,0.166 -5.617,-3.099 -5.65,-6.424 -0.069,-7.013 2.546,-22.309 7.518,-21.92 6.965,0.546 5.081,15.816 4.266,21.06 3.376,-0.889 7.703,-1.627 11.217,-1.935"
         style="fill:#191b3e;fill-opacity:1;fill-rule:nonzero;stroke:none;stroke-width:0.1"
         id="path90" />
      <path
         d="m 166.33398,421.95299 c -2.577,-1.676 -2.578,-5.044 -1.825,-7.831 0.753,-2.786 3.637,-5.258 6.521,-5.378 3.838,-0.16 3.343,4.371 3.101,7.015 -0.665,7.232 -4.825,8.127 -7.797,6.194"
         style="fill:#e8907a;fill-opacity:1;fill-rule:nonzero;stroke:none;stroke-width:0.1"
         id="path92" />
      <path
         d="m 187.61898,417.31599 c 0,-1.496 -0.708,-2.707 -1.581,-2.707 -0.874,0 -1.582,1.211 -1.582,2.707 0,1.495 0.708,2.707 1.582,2.707 0.873,0 1.581,-1.212 1.581,-2.707"
         style="fill:#191b3e;fill-opacity:1;fill-rule:nonzero;stroke:none;stroke-width:0.1"
         id="path94" />
      <path
         d="m 200.42298,417.80199 c 0,-1.495 -0.708,-2.707 -1.581,-2.707 -0.874,0 -1.582,1.212 -1.582,2.707 0,1.495 0.708,2.707 1.582,2.707 0.873,0 1.581,-1.212 1.581,-2.707"
         style="fill:#191b3e;fill-opacity:1;fill-rule:nonzero;stroke:none;stroke-width:0.1"
         id="path96" />
      <path
         d="m 192.65098,420.30099 c -0.601,-2.335 -1.696,-6.371 0.185,-8.426 0.681,-0.744 1.993,-0.928 2.523,-1.789 1.223,-1.987 -2.047,-2.128 -3.252,-2.255 -1.221,-0.129 -1.277,-1.901 0,-1.944 2.318,-0.077 5.799,0.932 5.613,3.888 -0.067,1.072 -0.784,1.966 -1.604,2.592 -1.15,0.877 -1.76,0.842 -2.033,2.576 -0.251,1.597 0.157,3.516 0.301,5.124 0.089,1.001 -1.49,1.182 -1.733,0.234 v 0"
         style="fill:#d07769;fill-opacity:1;fill-rule:nonzero;stroke:none;stroke-width:0.1"
         id="path98" />
      <path
         d="m 185.89698,402.44399 c 1.546,-1.571 3.727,-2.665 5.968,-2.554 2.171,0.107 4.852,1.43 5.602,3.55 0.131,0.37 -0.292,0.824 -0.673,0.673 -1.857,-0.736 -3.017,-2.449 -5.188,-2.524 -1.882,-0.065 -3.377,0.936 -4.883,1.924 -0.657,0.431 -1.359,-0.527 -0.826,-1.069 v 0"
         style="fill:#d07769;fill-opacity:1;fill-rule:nonzero;stroke:none;stroke-width:0.1"
         id="path100" />
      <path
         d="m 190.09098,397.54799 c 1.009,-0.145 1.954,-0.257 2.973,-0.182 0.473,0.034 0.575,0.674 0.112,0.829 -0.968,0.323 -1.909,0.45 -2.922,0.558 -0.68,0.073 -0.848,-1.107 -0.163,-1.205 v 0"
         style="fill:#d07769;fill-opacity:1;fill-rule:nonzero;stroke:none;stroke-width:0.1"
         id="path102" />
      <path
         d="m 170.94998,420.02299 c -0.979,1.013 -2.423,1.055 -3.598,0.304 -1.348,-0.863 -1.816,-2.57 -1.71,-4.092 0.121,-1.734 1.333,-5.885 3.703,-5.312 0.269,0.065 0.464,0.448 0.281,0.69 -0.42,0.553 -1.029,0.851 -1.443,1.418 -0.435,0.596 -0.686,1.328 -0.875,2.033 -0.496,1.842 0.162,5.905 2.98,4.101 0.532,-0.341 1.087,0.419 0.662,0.858 v 0"
         style="fill:#d07769;fill-opacity:1;fill-rule:nonzero;stroke:none;stroke-width:0.1"
         id="path104" />
      <path
         d="m 180.53098,424.38699 c 1.376,0.727 2.896,1.243 4.454,1.388 1.337,0.124 2.642,-0.19 3.97,-0.121 0.738,0.038 1.139,1.094 0.4,1.477 -2.914,1.51 -6.999,0.189 -9.534,-1.529 -0.745,-0.506 -0.097,-1.641 0.71,-1.215 v 0"
         style="fill:#191b3e;fill-opacity:1;fill-rule:nonzero;stroke:none;stroke-width:0.1"
         id="path106" />
      <path
         d="m 197.16598,425.56099 c 1.082,0.512 2.275,1.144 3.507,1.103 1.117,-0.037 1.854,-0.855 2.986,-0.643 0.412,0.078 0.633,0.569 0.536,0.944 -0.369,1.418 -2.209,1.846 -3.522,1.81 -1.593,-0.045 -3.047,-0.943 -4.372,-1.734 -0.96,-0.574 -0.119,-1.946 0.865,-1.48 v 0"
         style="fill:#191b3e;fill-opacity:1;fill-rule:nonzero;stroke:none;stroke-width:0.1"
         id="path108" />
      <path
         d="m 182.30198,410.55699 c 1.074,-0.221 2.349,-0.273 3.173,0.579 0.374,0.386 0.099,1.035 -0.435,1.048 -0.863,0.019 -1.682,-0.295 -2.552,-0.252 -0.78,0.038 -0.964,-1.215 -0.186,-1.375 v 0"
         style="fill:#d07769;fill-opacity:1;fill-rule:nonzero;stroke:none;stroke-width:0.1"
         id="path110" />
      <path
         d="m 200.47498,411.25299 c 0.319,-0.047 0.627,-0.015 0.948,-0.002 1.166,0.047 1.146,1.708 0,1.797 -0.649,0.051 -1.222,-0.304 -1.456,-0.898 -0.133,-0.337 0.148,-0.843 0.508,-0.897 v 0"
         style="fill:#d07769;fill-opacity:1;fill-rule:nonzero;stroke:none;stroke-width:0.1"
         id="path112" />
      <path
         d="m 171.76498,416.92999 c -1.34,0.476 -2.645,-0.122 -2.648,-1.657 -0.003,-1.474 0.929,-2.802 2.367,-3.171 0.519,-0.133 0.749,0.533 0.348,0.824 -0.618,0.447 -1.197,1.343 -1.346,2.094 -0.159,0.804 0.225,0.966 0.958,0.744 0.752,-0.227 1.045,0.908 0.321,1.166 v 0"
         style="fill:#d07769;fill-opacity:1;fill-rule:nonzero;stroke:none;stroke-width:0.1"
         id="path114" />
      <path
         d="m 178.14898,439.50599 c 7.247,-3.43 14.904,-0.226 22.534,0.136 0.494,0.022 0.494,0.74 0,0.767 -7.572,0.401 -14.968,-3.538 -22.224,-0.372 -0.355,0.154 -0.671,-0.36 -0.31,-0.531 v 0"
         style="fill:#29306f;fill-opacity:1;fill-rule:nonzero;stroke:none;stroke-width:0.1"
         id="path116" />
      <path
         d="m 175.00998,443.80399 c 6.417,-2.805 12.618,-0.898 19.292,-0.124 0.664,0.076 0.684,0.993 0,1.048 -6.606,0.529 -12.306,-2.574 -18.967,-0.152 -0.444,0.161 -0.764,-0.58 -0.325,-0.772 v 0"
         style="fill:#29306f;fill-opacity:1;fill-rule:nonzero;stroke:none;stroke-width:0.1"
         id="path118" />
      <path
         d="m 177.04698,447.85899 c 3.708,-1.622 8.585,-2.027 12.173,0.158 0.406,0.247 0.143,0.894 -0.325,0.771 -4.064,-1.071 -7.473,-1.651 -11.591,-0.321 -0.352,0.113 -0.605,-0.455 -0.257,-0.608 v 0"
         style="fill:#29306f;fill-opacity:1;fill-rule:nonzero;stroke:none;stroke-width:0.1"
         id="path120" />
      <path
         d="m 164.87098,435.75899 c -2.276,-2.016 -2.285,-5.757 -0.652,-8.181 0.223,-0.33 0.756,-0.216 0.763,0.206 0.041,2.504 -1.342,5.078 0.648,7.215 0.474,0.509 -0.243,1.217 -0.759,0.76 v 0"
         style="fill:#29306f;fill-opacity:1;fill-rule:nonzero;stroke:none;stroke-width:0.1"
         id="path122" />
      <path
         d="m 167.51698,434.25399 c -0.748,-2.31 -0.944,-5.913 1.02,-7.721 0.382,-0.352 0.964,-0.004 0.855,0.497 -0.235,1.067 -0.813,2.011 -1.035,3.095 -0.266,1.307 -0.285,2.593 -0.026,3.905 0.105,0.53 -0.645,0.745 -0.814,0.224 v 0"
         style="fill:#29306f;fill-opacity:1;fill-rule:nonzero;stroke:none;stroke-width:0.1"
         id="path124" />
      <path
         d="m 168.94498,439.85199 c -0.199,0.759 -0.316,1.523 -0.319,2.308 -0.003,0.634 0.161,1.263 0.048,1.886 -0.043,0.238 -0.397,0.264 -0.506,0.066 -0.669,-1.212 -0.198,-3.168 0.193,-4.421 0.115,-0.371 0.683,-0.218 0.584,0.161 v 0"
         style="fill:#29306f;fill-opacity:1;fill-rule:nonzero;stroke:none;stroke-width:0.1"
         id="path126" />
      <path
         d="m 170.45998,438.82399 c 0.398,1.012 0.863,2.017 1.168,3.062 0.067,0.229 -0.25,0.348 -0.374,0.157 -0.607,-0.932 -0.948,-2.031 -1.196,-3.108 -0.062,-0.267 0.306,-0.357 0.402,-0.111 v 0"
         style="fill:#29306f;fill-opacity:1;fill-rule:nonzero;stroke:none;stroke-width:0.1"
         id="path128" />
      <path
         d="m 172.29598,436.13399 c 0.325,0.395 0.662,0.78 1.065,1.098 0.375,0.297 0.804,0.518 1.15,0.852 0.206,0.2 -0.016,0.467 -0.253,0.435 -1.023,-0.14 -1.944,-1.177 -2.424,-2.029 -0.158,-0.279 0.243,-0.622 0.462,-0.356 v 0"
         style="fill:#29306f;fill-opacity:1;fill-rule:nonzero;stroke:none;stroke-width:0.1"
         id="path130" />
      <path
         d="m 210.22498,353.47499 -3.544,1.002 6.184,21.875 3.544,-1.002 -6.184,-21.875"
         style="fill:#191b3e;fill-opacity:1;fill-rule:nonzero;stroke:none;stroke-width:0.1"
         id="path132" />
      <path
         d="m 216.40798,375.34699 -3.549,1.003 1.587,2.205 1.573,2.197 0.191,-2.696 0.198,-2.709"
         style="fill:#fab43b;fill-opacity:1;fill-rule:nonzero;stroke:none;stroke-width:0.1"
         id="path134" />
      <path
         d="m 207.96998,351.70299 -0.296,0.084 c -0.897,0.253 -1.418,1.186 -1.164,2.083 l 0.171,0.607 3.544,-1.002 -0.172,-0.607 c -0.253,-0.897 -1.186,-1.419 -2.083,-1.165"
         style="fill:#fab43b;fill-opacity:1;fill-rule:nonzero;stroke:none;stroke-width:0.1"
         id="path136" />
      <path
         d="m 216.20998,378.05599 -1.764,0.499 1.573,2.197 z"
         style="fill:#191b3e;fill-opacity:1;fill-rule:nonzero;stroke:none;stroke-width:0.1"
         id="path138" />
      <path
         d="m 215.01298,356.13599 c 0.626,1.167 8.462,1.966 6.837,3.716 -0.357,0.385 -7.029,-0.173 -6.522,0.021 6.265,2.394 8.82,5.798 5.897,5.041 -2.569,-1.038 -5.181,-1.86 -7.75,-2.897 1.158,1.454 2.429,1.828 3.75,2.897 1.321,1.068 5.043,4.119 3.02,4.3 -2.465,-1.097 -6.361,-3.243 -8.326,-5.091 0.266,2.283 7.241,7.036 3.993,7.036 -2.407,-1.707 -4.824,-3.399 -7.22,-5.121 -1.563,-1.124 -2.446,-3.295 -2.563,-4.021 -0.448,-2.779 0.343,-10.894 -0.973,-13.443 -1.335,-2.588 -5.474,-6.691 -8.217,-7.568 0.402,-8.685 2.859,-10.024 9.917,-6.766 4.44,2.049 8.737,7.225 9.354,12.145 0.178,1.416 -1.391,9.39 -1.197,9.751"
         style="fill:#e8907a;fill-opacity:1;fill-rule:nonzero;stroke:none;stroke-width:0.1"
         id="path140" />
      <path
         d="m 139.20398,342.29899 c 5.205,-11.551 11.212,-28.185 19.303,-37.935 3.129,-3.77 5.215,-5.593 10.113,-5.711 5.516,-0.132 11.885,6.023 15.98,9.72 10.989,9.921 17.048,16.213 26.945,24.241 -3.97,5.487 -6.319,9.364 -9.362,15.414 -11.021,-8.09 -20.118,-13.779 -32.051,-20.449 -1.734,10.663 -17.962,53.768 -24.212,51.358 -5.897,-2.274 -9.727,-5.601 -11.353,-11.814 -0.999,-3.819 -0.234,-14.011 4.637,-24.824"
         style="fill:#f1ede4;fill-opacity:1;fill-rule:nonzero;stroke:none;stroke-width:0.1"
         id="path142" />
      <path
         d="m 206.12798,332.26699 c 0,-1.09 -0.883,-1.973 -1.972,-1.973 -1.09,0 -1.973,0.883 -1.973,1.973 0,1.089 0.883,1.973 1.973,1.973 1.089,0 1.972,-0.884 1.972,-1.973"
         style="fill:#d4d1c5;fill-opacity:1;fill-rule:nonzero;stroke:none;stroke-width:0.1"
         id="path144" />
      <path
         d="m 198.91298,327.26499 c 0,-1.09 -0.884,-1.973 -1.974,-1.973 -1.089,0 -1.972,0.883 -1.972,1.973 0,1.089 0.883,1.973 1.972,1.973 1.09,0 1.974,-0.884 1.974,-1.973"
         style="fill:#d4d1c5;fill-opacity:1;fill-rule:nonzero;stroke:none;stroke-width:0.1"
         id="path146" />
      <path
         d="m 168.21198,326.09899 c -2.762,-3.795 -5.642,-9.616 -4.585,-14.439 0.221,-1.007 1.541,-0.81 1.85,0 0.802,2.102 0.951,4.431 1.598,6.595 0.709,2.374 1.781,4.604 3.014,6.747 0.712,1.238 -1.07,2.206 -1.877,1.097 v 0"
         style="fill:#e3e0d6;fill-opacity:1;fill-rule:nonzero;stroke:none;stroke-width:0.1"
         id="path148" />
      <path
         d="m 170.90198,324.47799 c -1.653,-5.149 -2.035,-11.545 0.99,-16.263 0.475,-0.741 1.635,-0.272 1.425,0.601 -1.274,5.293 -2.391,9.825 -0.96,15.262 0.249,0.943 -1.159,1.322 -1.455,0.4 v 0"
         style="fill:#e3e0d6;fill-opacity:1;fill-rule:nonzero;stroke:none;stroke-width:0.1"
         id="path150" />
      <path
         d="m 420.66098,241.83999 h -16.265 v 31.783 h 16.265 v -31.783"
         style="fill:#4941a1;fill-opacity:1;fill-rule:nonzero;stroke:none;stroke-width:0.1"
         id="path152" />
      <path
         d="m 460.06098,328.14699 h -95.065 c -2.501,0 -4.528,-2.027 -4.528,-4.528 v -52.122 c 0,-2.5 2.027,-4.528 4.528,-4.528 h 95.065 c 2.501,0 4.528,2.028 4.528,4.528 v 52.122 c 0,2.501 -2.027,4.528 -4.528,4.528"
         style="fill:#191b3e;fill-opacity:1;fill-rule:nonzero;stroke:none;stroke-width:0.1"
         id="path154" />
      <path
         d="m 459.16498,271.46399 h -93.274 v 52.188 h 93.274 v -52.188"
         style="fill:#f7d22e;fill-opacity:1;fill-rule:nonzero;stroke:none;stroke-width:0.1"
         id="path156" />
      <path
         d="m 441.85398,237.30799 h -58.651 v 4.532 h 58.651 v -4.532"
         style="fill:#191b3e;fill-opacity:1;fill-rule:nonzero;stroke:none;stroke-width:0.1"
         id="path158" />
      <path
         d="m 431.48298,300.65899 c -1.713,0 -3.101,-1.388 -3.101,-3.101 0,-1.712 1.388,-3.101 3.101,-3.101 1.713,0 3.101,1.389 3.101,3.101 0,1.713 -1.388,3.101 -3.101,3.101"
         style="fill:#ee1d5b;fill-opacity:1;fill-rule:nonzero;stroke:none;stroke-width:0.1"
         id="path160" />
      <path
         d="m 449.27198,289.98999 c -0.468,-1.096 -2.836,-1.477 -6.334,-1.024 -1.743,0.226 -3.69,0.65 -5.745,1.231 0.123,1.108 0.216,2.244 0.282,3.393 2.146,1.059 4.128,2.183 5.881,3.325 0.813,-0.549 1.575,-1.101 2.261,-1.651 2.754,-2.207 4.121,-4.179 3.655,-5.274 z m -17.789,-11.763 c -1.759,0 -3.663,4.341 -4.539,11.2 1.498,0.45 3.024,0.971 4.54,1.551 1.543,-0.592 3.064,-1.116 4.538,-1.559 -0.877,-6.854 -2.78,-11.192 -4.539,-11.192 z m -17.789,11.763 c -0.58,1.364 1.633,4.03 5.914,6.925 1.781,-1.155 3.786,-2.28 5.883,-3.317 0.066,-1.152 0.16,-2.292 0.282,-3.402 -6.652,-1.877 -11.391,-1.824 -12.079,-0.206 z m 0,15.136 c 0.337,0.793 1.644,1.212 3.675,1.212 2.11,0 5.014,-0.467 8.404,-1.423 -0.123,-1.108 -0.216,-2.247 -0.282,-3.396 -2.097,-1.038 -4.103,-2.163 -5.883,-3.318 -4.281,2.895 -6.494,5.561 -5.914,6.925 z m 17.789,11.764 c 1.759,0 3.662,-4.339 4.539,-11.193 -1.475,-0.444 -2.998,-0.967 -4.542,-1.56 -1.514,0.579 -3.04,1.108 -4.536,1.558 0.877,6.855 2.781,11.195 4.539,11.195 z m 6.053,-16.599 c 1.743,-0.879 3.367,-1.798 4.834,-2.733 -1.467,-0.935 -3.091,-1.853 -4.834,-2.733 0.036,0.911 0.053,1.824 0.053,2.734 0,0.908 -0.017,1.822 -0.053,2.732 z m -4.574,3.259 c 1.08,0.394 2.143,0.746 3.185,1.063 0.089,-0.823 0.164,-1.675 0.222,-2.561 -0.816,0.385 -1.645,0.763 -2.496,1.125 -0.301,0.128 -0.607,0.249 -0.911,0.373 z m -6.365,-1.5 c 0.058,0.885 0.134,1.737 0.223,2.56 1.018,-0.309 2.08,-0.668 3.172,-1.065 -0.3,-0.123 -0.599,-0.24 -0.899,-0.368 -0.838,-0.356 -1.671,-0.737 -2.496,-1.127 z m -1.166,-7.227 c -1.794,0.905 -3.409,1.826 -4.834,2.735 1.425,0.909 3.04,1.83 4.834,2.735 -0.036,-0.911 -0.055,-1.825 -0.055,-2.734 0,-0.91 0.019,-1.825 0.055,-2.736 z m 4.57,-3.256 c -1.098,-0.399 -2.158,-0.751 -3.181,-1.061 -0.089,0.823 -0.165,1.675 -0.223,2.56 0.825,-0.39 1.658,-0.771 2.496,-1.127 0.304,-0.129 0.606,-0.248 0.908,-0.372 z m 6.368,1.497 c -0.058,-0.886 -0.133,-1.737 -0.222,-2.561 -1.043,0.318 -2.108,0.671 -3.19,1.065 0.305,0.124 0.614,0.242 0.916,0.371 0.851,0.362 1.68,0.74 2.496,1.125 z m -2.915,-0.138 c -0.666,-0.283 -1.322,-0.55 -1.968,-0.803 -0.656,0.256 -1.314,0.522 -1.974,0.803 -1.04,0.443 -2.026,0.898 -2.98,1.357 -0.049,1.059 -0.082,2.145 -0.082,3.276 0,1.13 0.033,2.216 0.082,3.274 0.954,0.459 1.94,0.915 2.98,1.357 0.657,0.28 1.312,0.544 1.963,0.799 0.652,-0.255 1.308,-0.513 1.979,-0.799 1.021,-0.434 2.013,-0.89 2.98,-1.356 0.05,-1.059 0.083,-2.145 0.083,-3.275 0,-1.132 -0.033,-2.218 -0.083,-3.277 -0.967,-0.466 -1.959,-0.922 -2.98,-1.356 z m 9.484,13.224 c 0.969,0.126 1.851,0.187 2.63,0.187 2.035,0 3.366,-0.419 3.704,-1.211 0.466,-1.095 -0.901,-3.067 -3.655,-5.274 -0.686,-0.55 -1.448,-1.102 -2.261,-1.651 -1.753,1.142 -3.735,2.266 -5.881,3.325 -0.066,1.149 -0.159,2.286 -0.281,3.393 2.054,0.581 4.001,1.006 5.744,1.231 z m 3.35,-10.048 c -0.605,0.484 -1.275,0.971 -1.977,1.456 0.702,0.485 1.372,0.972 1.977,1.457 3.293,2.639 4.666,4.897 3.97,6.531 -0.694,1.634 -3.272,2.212 -7.459,1.668 -1.746,-0.226 -3.689,-0.646 -5.736,-1.218 -0.859,6.638 -2.757,11.967 -5.58,11.967 -2.823,0 -4.721,-5.332 -5.58,-11.972 -6.444,1.806 -12.092,2.153 -13.197,-0.445 -0.91,-2.139 1.759,-5.112 5.947,-7.988 -4.188,-2.875 -6.857,-5.849 -5.947,-7.988 0.56,-1.316 2.285,-1.878 4.686,-1.878 2.341,0 5.331,0.547 8.51,1.438 0.859,-6.643 2.757,-11.977 5.581,-11.977 2.823,0 4.721,5.329 5.58,11.968 2.048,-0.573 3.99,-0.993 5.736,-1.219 1.022,-0.132 1.947,-0.198 2.773,-0.198 2.558,0 4.162,0.631 4.686,1.866 0.696,1.634 -0.677,3.892 -3.97,6.532"
         style="fill:#a039a2;fill-opacity:1;fill-rule:nonzero;stroke:none;stroke-width:0.1"
         id="path162" />
      <path
         d="m 377.18898,289.96999 -0.753,0.664 9.448,10.706 -6.784,10.933 0.853,0.53 7.178,-11.568 -9.942,-11.265"
         style="fill:#ffffff;fill-opacity:1;fill-rule:nonzero;stroke:none;stroke-width:0.1"
         id="path164" />
      <path
         d="m 398.91998,298.08299 -13.615,2.952 14.349,10.416 0.59,-0.812 -12.534,-9.099 11.422,-2.476 -0.212,-0.981"
         style="fill:#ffffff;fill-opacity:1;fill-rule:nonzero;stroke:none;stroke-width:0.1"
         id="path166" />
      <path
         d="m 385.84698,282.66599 -1.002,0.062 1.26,20.166 10.634,-17.219 -0.855,-0.527 -8.973,14.533 -1.064,-17.015"
         style="fill:#ffffff;fill-opacity:1;fill-rule:nonzero;stroke:none;stroke-width:0.1"
         id="path168" />
      <path
         d="m 382.24198,312.53799 c 0,-1.499 -1.216,-2.714 -2.715,-2.714 -1.499,0 -2.715,1.215 -2.715,2.714 0,1.499 1.216,2.714 2.715,2.714 1.499,0 2.715,-1.215 2.715,-2.714"
         style="fill:#a039a2;fill-opacity:1;fill-rule:nonzero;stroke:none;stroke-width:0.1"
         id="path170" />
      <path
         d="m 389.22198,301.28799 c 0,-1.499 -1.215,-2.714 -2.714,-2.714 -1.499,0 -2.715,1.215 -2.715,2.714 0,1.499 1.216,2.714 2.715,2.714 1.499,0 2.714,-1.215 2.714,-2.714"
         style="fill:#4941a1;fill-opacity:1;fill-rule:nonzero;stroke:none;stroke-width:0.1"
         id="path172" />
      <path
         d="m 388.05998,282.69699 c 0,-1.499 -1.215,-2.714 -2.714,-2.714 -1.499,0 -2.714,1.215 -2.714,2.714 0,1.499 1.215,2.715 2.714,2.715 1.499,0 2.714,-1.216 2.714,-2.715"
         style="fill:#a039a2;fill-opacity:1;fill-rule:nonzero;stroke:none;stroke-width:0.1"
         id="path174" />
      <path
         d="m 401.73998,298.57399 c 0,-1.499 -1.215,-2.715 -2.714,-2.715 -1.499,0 -2.715,1.216 -2.715,2.715 0,1.499 1.216,2.714 2.715,2.714 1.499,0 2.714,-1.215 2.714,-2.714"
         style="fill:#191b3e;fill-opacity:1;fill-rule:nonzero;stroke:none;stroke-width:0.1"
         id="path176" />
      <path
         d="m 402.66298,311.04399 c 0,-1.499 -1.215,-2.714 -2.714,-2.714 -1.5,0 -2.715,1.215 -2.715,2.714 0,1.5 1.215,2.715 2.715,2.715 1.499,0 2.714,-1.215 2.714,-2.715"
         style="fill:#4941a1;fill-opacity:1;fill-rule:nonzero;stroke:none;stroke-width:0.1"
         id="path178" />
      <path
         d="m 399.02598,285.41199 c 0,-1.499 -1.215,-2.715 -2.715,-2.715 -1.499,0 -2.714,1.216 -2.714,2.715 0,1.499 1.215,2.714 2.714,2.714 1.5,0 2.715,-1.215 2.715,-2.714"
         style="fill:#ee1d5b;fill-opacity:1;fill-rule:nonzero;stroke:none;stroke-width:0.1"
         id="path180" />
      <path
         d="m 379.52698,290.30199 c 0,-1.499 -1.216,-2.714 -2.715,-2.714 -1.499,0 -2.714,1.215 -2.714,2.714 0,1.499 1.215,2.715 2.714,2.715 1.499,0 2.715,-1.216 2.715,-2.715"
         style="fill:#191b3e;fill-opacity:1;fill-rule:nonzero;stroke:none;stroke-width:0.1"
         id="path182" />
      <path
         d="m 288.16498,70.301088 h -7.33 V 226.77199 h 7.33 V 70.301088"
         style="fill:#191b3e;fill-opacity:1;fill-rule:nonzero;stroke:none;stroke-width:0.1"
         id="path184" />
      <path
         d="m 471.61198,70.301088 h -7.33 V 226.77199 h 7.33 V 70.301088"
         style="fill:#191b3e;fill-opacity:1;fill-rule:nonzero;stroke:none;stroke-width:0.1"
         id="path186" />
      <path
         d="m 483.36998,222.33699 h -212.991 v 14.971 h 212.991 v -14.971"
         style="fill:#4941a1;fill-opacity:1;fill-rule:nonzero;stroke:none;stroke-width:0.1"
         id="path188" />
      <path
         d="m 322.98698,261.33499 h -21.81 v 4.436 h 21.81 v -4.436"
         style="fill:#4941a1;fill-opacity:1;fill-rule:nonzero;stroke:none;stroke-width:0.1"
         id="path190" />
      <path
         d="m 315.24698,261.33499 9.408,-14.786 5.378,2.407 -7.046,12.379 h -7.74"
         style="fill:#d4d1c5;fill-opacity:1;fill-rule:nonzero;stroke:none;stroke-width:0.1"
         id="path192" />
      <path
         d="m 322.37698,287.03199 -11.779,3.557 8.921,29.541 11.779,-3.557 -8.921,-29.541"
         style="fill:#191b3e;fill-opacity:1;fill-rule:nonzero;stroke:none;stroke-width:0.1"
         id="path194" />
      <path
         d="m 331.95198,329.92799 -5.586,1.686 -3.75,-12.419 5.585,-1.687 3.751,12.42"
         style="fill:#4941a1;fill-opacity:1;fill-rule:nonzero;stroke:none;stroke-width:0.1"
         id="path196" />
      <path
         d="m 324.58798,286.36399 -16.201,4.893 -1.435,-4.751 16.202,-4.893 1.434,4.751"
         style="fill:#4941a1;fill-opacity:1;fill-rule:nonzero;stroke:none;stroke-width:0.1"
         id="path198" />
      <path
         d="m 314.73298,271.99299 -6.092,1.839 3.366,11.147 6.092,-1.839 -3.366,-11.147"
         style="fill:#191b3e;fill-opacity:1;fill-rule:nonzero;stroke:none;stroke-width:0.1"
         id="path200" />
      <path
         d="m 334.27698,289.35599 -10.262,3.099 5.529,18.313 10.263,-3.099 -5.53,-18.313"
         style="fill:#4941a1;fill-opacity:1;fill-rule:nonzero;stroke:none;stroke-width:0.1"
         id="path202" />
      <path
         d="m 344.91198,242.48299 c -0.173,2.243 13.28,29.911 -1.941,55.125 -5.587,9.256 -11.634,9.307 -14.007,5.973 -1.967,-2.765 -1.256,-7.585 2.947,-13.875 5.081,-7.605 3.501,-27.624 -9.271,-47.223 h 22.272"
         style="fill:#f1ede4;fill-opacity:1;fill-rule:nonzero;stroke:none;stroke-width:0.1"
         id="path204" />
      <path
         d="m 348.88598,242.48299 h -51.798 v -5.175 h 51.798 v 5.175"
         style="fill:#191b3e;fill-opacity:1;fill-rule:nonzero;stroke:none;stroke-width:0.1"
         id="path206" />
      <path
         d="m 337.42598,242.48299 c 0,0 0,12.569 -8.871,12.938 -8.872,0.369 -9.611,-12.938 -9.611,-12.938 h 18.482"
         style="fill:#4941a1;fill-opacity:1;fill-rule:nonzero;stroke:none;stroke-width:0.1"
         id="path208" />
      <path
         d="m 331.51198,248.03099 c 0,-1.837 -1.49,-3.326 -3.327,-3.326 -1.837,0 -3.327,1.489 -3.327,3.326 0,1.838 1.49,3.327 3.327,3.327 1.837,0 3.327,-1.489 3.327,-3.327"
         style="fill:#191b3e;fill-opacity:1;fill-rule:nonzero;stroke:none;stroke-width:0.1"
         id="path210" />
      <path
         d="m 336.27898,299.74799 c 0,-1.838 -1.489,-3.328 -3.326,-3.328 -1.838,0 -3.328,1.49 -3.328,3.328 0,1.837 1.49,3.326 3.328,3.326 1.837,0 3.326,-1.489 3.326,-3.326"
         style="fill:#191b3e;fill-opacity:1;fill-rule:nonzero;stroke:none;stroke-width:0.1"
         id="path212" />
      <path
         d="m 334.32798,299.74799 c 0,-0.76 -0.616,-1.375 -1.375,-1.375 -0.76,0 -1.376,0.615 -1.376,1.375 0,0.759 0.616,1.375 1.376,1.375 0.759,0 1.375,-0.616 1.375,-1.375"
         style="fill:#4941a1;fill-opacity:1;fill-rule:nonzero;stroke:none;stroke-width:0.1"
         id="path214" />
      <path
         d="m 464.64598,278.34899 h -11.829 v -2.403 h 11.829 v 2.403"
         style="fill:#88aee0;fill-opacity:1;fill-rule:nonzero;stroke:none;stroke-width:0.1"
         id="path216" />
      <path
         d="m 475.87098,249.50099 c 0,-3.858 -1.276,-7.419 -3.427,-10.279 -0.998,-1.331 -2.573,-2.108 -4.247,-2.108 h -18.919 c -1.675,0 -3.25,0.777 -4.248,2.108 -2.152,2.86 -3.427,6.421 -3.427,10.279 0,2.196 0.411,4.304 1.165,6.233 1.974,5.013 6.255,8.883 11.533,10.291 v 9.914 h 8.872 v -9.914 c 5.279,-1.408 9.559,-5.278 11.533,-10.291 0.754,-1.929 1.165,-4.037 1.165,-6.233"
         style="fill:#bfdef5;fill-opacity:1;fill-rule:nonzero;stroke:none;stroke-width:0.1"
         id="path218" />
      <path
         d="m 475.87098,249.50099 c 0,-3.858 -1.276,-7.419 -3.427,-10.279 -0.998,-1.331 -2.573,-2.108 -4.247,-2.108 h -18.919 c -1.675,0 -3.25,0.777 -4.248,2.108 -2.152,2.86 -3.427,6.421 -3.427,10.279 0,2.196 0.411,4.304 1.165,6.233 h 31.938 c 0.754,-1.929 1.165,-4.037 1.165,-6.233"
         style="fill:#ee1d5b;fill-opacity:1;fill-rule:nonzero;stroke:none;stroke-width:0.1"
         id="path220" />
      <path
         d="m 448.07598,247.13099 c 0,-0.618 -0.501,-1.119 -1.12,-1.119 -0.618,0 -1.12,0.501 -1.12,1.119 0,0.618 0.502,1.12 1.12,1.12 0.619,0 1.12,-0.502 1.12,-1.12"
         style="fill:#ffffff;fill-opacity:1;fill-rule:nonzero;stroke:none;stroke-width:0.1"
         id="path222" />
      <path
         d="m 465.81998,248.08599 c 0,-1.43 -1.158,-2.588 -2.588,-2.588 -1.429,0 -2.588,1.158 -2.588,2.588 0,1.429 1.159,2.587 2.588,2.587 1.43,0 2.588,-1.158 2.588,-2.587"
         style="fill:#ffffff;fill-opacity:1;fill-rule:nonzero;stroke:none;stroke-width:0.1"
         id="path224" />
      <path
         d="m 458.73698,243.61899 c 0,-0.851 -0.69,-1.542 -1.541,-1.542 -0.852,0 -1.542,0.691 -1.542,1.542 0,0.851 0.69,1.541 1.542,1.541 0.851,0 1.541,-0.69 1.541,-1.541"
         style="fill:#ffffff;fill-opacity:1;fill-rule:nonzero;stroke:none;stroke-width:0.1"
         id="path226" />
      <path
         d="m 472.83398,250.50799 c 0,-0.559 -0.453,-1.012 -1.011,-1.012 -0.56,0 -1.013,0.453 -1.013,1.012 0,0.559 0.453,1.012 1.013,1.012 0.558,0 1.011,-0.453 1.011,-1.012"
         style="fill:#ffffff;fill-opacity:1;fill-rule:nonzero;stroke:none;stroke-width:0.1"
         id="path228" />
      <path
         d="m 451.32798,243.61899 c 0,-0.559 -0.454,-1.013 -1.013,-1.013 -0.559,0 -1.012,0.454 -1.012,1.013 0,0.559 0.453,1.012 1.012,1.012 0.559,0 1.013,-0.453 1.013,-1.012"
         style="fill:#ffffff;fill-opacity:1;fill-rule:nonzero;stroke:none;stroke-width:0.1"
         id="path230" />
      <path
         d="m 457.19598,251.49599 c 0,-0.936 -0.759,-1.695 -1.696,-1.695 -0.935,0 -1.694,0.759 -1.694,1.695 0,0.936 0.759,1.694 1.694,1.694 0.937,0 1.696,-0.758 1.696,-1.694"
         style="fill:#ffffff;fill-opacity:1;fill-rule:nonzero;stroke:none;stroke-width:0.1"
         id="path232" />
      <path
         d="m 467.89998,241.80799 c 0,-0.575 -0.466,-1.04 -1.04,-1.04 -0.574,0 -1.04,0.465 -1.04,1.04 0,0.575 0.466,1.04 1.04,1.04 0.574,0 1.04,-0.465 1.04,-1.04"
         style="fill:#ffffff;fill-opacity:1;fill-rule:nonzero;stroke:none;stroke-width:0.1"
         id="path234" />
      <path
         d="m 386.71298,271.15399 v -30.674 c 0,-1.786 -1.453,-3.227 -3.238,-3.227 h -17.921 c -1.785,0 -3.238,1.441 -3.238,3.227 v 30.674 h 24.397"
         style="fill:#bfdef5;fill-opacity:1;fill-rule:nonzero;stroke:none;stroke-width:0.1"
         id="path236" />
      <path
         d="m 388.56198,274.21499 h -28.094 v -3.057 h 28.094 v 3.057"
         style="fill:#88aee0;fill-opacity:1;fill-rule:nonzero;stroke:none;stroke-width:0.1"
         id="path238" />
      <path
         d="m 386.71298,258.68899 v -18.209 c 0,-1.786 -1.453,-3.227 -3.238,-3.227 h -17.921 c -1.785,0 -3.238,1.441 -3.238,3.227 v 18.209 h 24.397"
         style="fill:#a039a2;fill-opacity:1;fill-rule:nonzero;stroke:none;stroke-width:0.1"
         id="path240" />
      <path
         d="m 371.62598,251.66599 c 0,-1.391 -1.127,-2.519 -2.518,-2.519 -1.39,0 -2.517,1.128 -2.517,2.519 0,1.391 1.127,2.518 2.517,2.518 1.391,0 2.518,-1.127 2.518,-2.518"
         style="fill:#ffffff;fill-opacity:1;fill-rule:nonzero;stroke:none;stroke-width:0.1"
         id="path242" />
      <path
         d="m 378.74298,253.45599 c 0,-0.593 -0.481,-1.074 -1.075,-1.074 -0.593,0 -1.074,0.481 -1.074,1.074 0,0.594 0.481,1.074 1.074,1.074 0.594,0 1.075,-0.48 1.075,-1.074"
         style="fill:#ffffff;fill-opacity:1;fill-rule:nonzero;stroke:none;stroke-width:0.1"
         id="path244" />
      <path
         d="m 375.86298,244.89899 c 0,-0.745 -0.604,-1.348 -1.348,-1.348 -0.745,0 -1.349,0.603 -1.349,1.348 0,0.745 0.604,1.349 1.349,1.349 0.744,0 1.348,-0.604 1.348,-1.349"
         style="fill:#ffffff;fill-opacity:1;fill-rule:nonzero;stroke:none;stroke-width:0.1"
         id="path246" />
      <path
         d="m 370.12098,242.59999 c 0,-0.28 -0.227,-0.506 -0.506,-0.506 -0.28,0 -0.507,0.226 -0.507,0.506 0,0.28 0.227,0.506 0.507,0.506 0.279,0 0.506,-0.226 0.506,-0.506"
         style="fill:#ffffff;fill-opacity:1;fill-rule:nonzero;stroke:none;stroke-width:0.1"
         id="path248" />
      <path
         d="m 383.15698,248.42399 c 0,-0.868 -0.704,-1.572 -1.573,-1.572 -0.868,0 -1.572,0.704 -1.572,1.572 0,0.868 0.704,1.572 1.572,1.572 0.869,0 1.573,-0.704 1.573,-1.572"
         style="fill:#ffffff;fill-opacity:1;fill-rule:nonzero;stroke:none;stroke-width:0.1"
         id="path250" />
      <path
         d="m 379.53198,241.32299 c 0,-0.436 -0.353,-0.79 -0.789,-0.79 -0.436,0 -0.79,0.354 -0.79,0.79 0,0.436 0.354,0.789 0.79,0.789 0.436,0 0.789,-0.353 0.789,-0.789"
         style="fill:#ffffff;fill-opacity:1;fill-rule:nonzero;stroke:none;stroke-width:0.1"
         id="path252" />
      <path
         d="m 428.70198,240.53499 c 0,-1.785 -1.454,-3.227 -3.239,-3.227 h -17.931 c -1.786,0 -3.228,1.442 -3.228,3.227 l 3.638,10.214 4.125,11.588 v 9.526 h 8.872 v -9.526 l 4.125,-11.588 3.638,-10.214"
         style="fill:#bfdef5;fill-opacity:1;fill-rule:nonzero;stroke:none;stroke-width:0.1"
         id="path254" />
      <path
         d="m 422.41298,274.26899 h -11.829 v -2.402 h 11.829 v 2.402"
         style="fill:#88aee0;fill-opacity:1;fill-rule:nonzero;stroke:none;stroke-width:0.1"
         id="path256" />
      <path
         d="m 428.70198,240.53499 c 0,-1.785 -1.454,-3.227 -3.239,-3.227 h -17.931 c -1.786,0 -3.228,1.442 -3.228,3.227 l 3.638,10.214 h 17.122 l 3.638,-10.214"
         style="fill:#ea8b27;fill-opacity:1;fill-rule:nonzero;stroke:none;stroke-width:0.1"
         id="path258" />
      <path
         d="m 413.07598,245.66099 c 0,-0.687 -0.558,-1.245 -1.247,-1.245 -0.687,0 -1.245,0.558 -1.245,1.245 0,0.688 0.558,1.245 1.245,1.245 0.689,0 1.247,-0.557 1.247,-1.245"
         style="fill:#ffffff;fill-opacity:1;fill-rule:nonzero;stroke:none;stroke-width:0.1"
         id="path260" />
      <path
         d="m 422.68298,245.85799 c 0,-1.197 -0.971,-2.168 -2.168,-2.168 -1.197,0 -2.168,0.971 -2.168,2.168 0,1.198 0.971,2.168 2.168,2.168 1.197,0 2.168,-0.97 2.168,-2.168"
         style="fill:#ffffff;fill-opacity:1;fill-rule:nonzero;stroke:none;stroke-width:0.1"
         id="path262" />
      <path
         d="m 416.50198,240.85299 c 0,-0.715 -0.58,-1.295 -1.295,-1.295 -0.715,0 -1.295,0.58 -1.295,1.295 0,0.715 0.58,1.295 1.295,1.295 0.715,0 1.295,-0.58 1.295,-1.295"
         style="fill:#ffffff;fill-opacity:1;fill-rule:nonzero;stroke:none;stroke-width:0.1"
         id="path264" />
      <path
         d="m 425.24798,241.37799 c 0,-0.426 -0.344,-0.771 -0.77,-0.771 -0.426,0 -0.771,0.345 -0.771,0.771 0,0.426 0.345,0.77 0.771,0.77 0.426,0 0.77,-0.344 0.77,-0.77"
         style="fill:#ffffff;fill-opacity:1;fill-rule:nonzero;stroke:none;stroke-width:0.1"
         id="path266" />
      <path
         d="m 409.65398,241.89499 c 0,-0.418 -0.34,-0.758 -0.759,-0.758 -0.419,0 -0.76,0.34 -0.76,0.758 0,0.42 0.341,0.76 0.76,0.76 0.419,0 0.759,-0.34 0.759,-0.76"
         style="fill:#ffffff;fill-opacity:1;fill-rule:nonzero;stroke:none;stroke-width:0.1"
         id="path268" />
      <path
         d="m 417.93898,199.87499 c 1.358,4.237 3.491,8.448 3.058,12.877 1.374,0.643 2.614,-1.086 3.158,-2.502 1.745,-4.549 3.514,-9.224 3.526,-14.095 0.009,-4.18 -1.282,-8.266 -1.466,-12.442 -0.264,-6.034 1.784,-11.917 2.383,-17.927 1.037,-10.416 -2.302,-20.83 -1.872,-31.288 0.142,-3.447 0.692,-6.889 0.474,-10.332 -0.303,-4.781 -2.084,-9.456 -1.727,-14.233 0.144,-1.909 0.364,-4.3518 -1.348,-5.2069 -2.322,6.2449 -4.663,12.5609 -5.477,19.1739 -0.537,4.354 -0.402,8.759 -0.565,13.143 -0.145,3.896 -0.528,7.779 -0.91,11.66 -0.847,8.61 -3.401,18.742 -2.256,27.331 1.055,7.91 0.551,16.131 3.022,23.841"
         style="fill:#3d6686;fill-opacity:1;fill-rule:nonzero;stroke:none;stroke-width:0.1"
         id="path270" />
      <path
         d="m 414.32998,124.95399 c -0.486,4.602 -0.226,9.245 -0.329,13.871 -0.244,10.955 -2.515,21.762 -3.38,32.686 -0.866,10.923 -0.206,22.379 4.981,32.031 0.67,-0.316 0.889,-1.145 1.032,-1.872 1.522,-7.7 3.043,-15.401 4.564,-23.103 1.715,-8.685 3.44,-17.512 2.662,-26.331 -0.425,-4.823 -1.596,-9.565 -1.855,-14.399 -0.677,-12.624 4.859,-25.37 1.991,-37.6831 -0.115,-0.491802 -2.938,3.025 -3.175,3.4679 -1.128,2.1082 -1.943,4.4692 -2.778,6.7042 -1.764,4.722 -3.182,9.602 -3.713,14.628"
         style="fill:#4b76a5;fill-opacity:1;fill-rule:nonzero;stroke:none;stroke-width:0.1"
         id="path272" />
      <path
         d="m 407.45798,117.60099 c -2.847,2.816 -7.241,3.182 -10.873,4.874 -4.962,2.309 -8.508,7.408 -8.948,12.864 -0.545,6.751 3.11,14.378 -0.87,19.856 -3.89,5.354 -12.764,4.881 -16.658,10.231 -3.722,5.116 -1.318,11.461 -2.198,17.726 -1.193,8.491 -18.408,18.336 -9.313,24.892 3.148,2.268 7.085,0.968 9.168,-2.306 2.083,-3.274 5.001,-7.565 7.193,-10.767 6.476,-9.454 20.613,-10.496 23.336,-21.627 0.743,-3.04 0.257,-6.362 1.511,-9.229 3.126,-7.145 14.912,-7.496 17.238,-14.94 1.123,-3.595 -0.53,-7.396 -0.992,-11.133 -0.723,-5.859 1.746,-12.016 6.319,-15.751 1.227,-1.002 2.626,-1.878 3.442,-3.237 1.691,-2.82 0.259,-6.369 -0.438,-9.582 -1.313,-6.058 0.579,-11.454102 3.543,-16.613802 -12.607,-6.3793 -16.579,19.913802 -21.46,24.742802"
         style="fill:#6690c7;fill-opacity:1;fill-rule:nonzero;stroke:none;stroke-width:0.1"
         id="path274" />
      <path
         d="m 364.11498,199.29499 c 6.929,-6.019 9.179,-15.875 15.555,-22.485 4.076,-4.223 8.632,-7.731 11.775,-12.799 2.957,-4.77 3.564,-10.579 6.636,-15.262 2.865,-4.365 8.023,-6.671 10.649,-11.211 1.765,-3.051 1.94,-6.607 3.094,-9.864 0.765,-2.159 1.914,-3.99 3.12,-5.928 3.568,-5.733 2.847,-11.144 4.042,-17.414 0.724,-3.8039 2.334,-6.907002 5.826,-8.757002 0.573,-0.304 1.059,0.5242 0.509,0.8699 -6.489,4.084002 -4.742,11.879102 -5.928,18.265102 -0.943,5.081 -4.601,8.556 -6.291,13.316 -1.629,4.587 -1.881,9.132 -5.277,12.896 -1.65,1.828 -3.676,3.276 -5.475,4.946 -2.929,2.72 -4.484,5.659 -5.844,9.392 -1.509,4.142 -2.872,7.977 -5.552,11.554 -3.201,4.273 -7.436,7.422 -11.009,11.322 -5.92,6.461 -8.195,16.404 -15.166,21.824 -0.465,0.361 -1.131,-0.261 -0.664,-0.665 v 0"
         style="fill:#ffffff;fill-opacity:1;fill-rule:nonzero;stroke:none;stroke-width:0.1"
         id="path276" />
      <path
         d="m 425.87998,128.88399 c 0.747,4.411 -0.727,8.861 -1.13,13.317 -0.403,4.455 0.785,9.717 4.834,11.618 1.353,0.635 2.907,0.825 4.161,1.637 2.646,1.711 2.989,5.393 2.92,8.542 -0.094,4.403 -0.313,8.872 0.836,13.124 3.37,12.474 13.127,7.101 16.522,12.842 5.959,10.079 8.694,18.021 13.568,16.895 7.68,-1.774 2.088,-13.421 0.248,-21.639 -0.761,-3.401 -1.856,-6.869 -1.252,-10.302 0.618,-3.516 2.994,-6.831 2.322,-10.337 -0.904,-4.699 -6.455,-6.613 -9.858,-9.978 -3.722,-3.677 -4.824,-9.748 -2.632,-14.499 1.324,-2.865 3.774,-5.687 2.971,-8.74 -1.681,-6.387 -13.198,-2.869 -16.858,-8.367 -2.522,-3.788 0.53,-9.265 -1.525,-13.326 -2.119,-4.1921 -8.494,-6.7191 -11.427,-10.553902 -2.694,-3.523 -2.732,-5.505 -6.549,-1.23 -9.324,10.438902 1.119,20.783902 2.849,30.996902"
         style="fill:#6690c7;fill-opacity:1;fill-rule:nonzero;stroke:none;stroke-width:0.1"
         id="path278" />
      <path
         d="m 427.33098,102.01399 c -0.227,6.732 1.435,12.402 5.643,17.712 2.052,2.587 4.468,5.019 5.816,8.086 1.49,3.388 1.069,6.692 0.513,10.237 -1.144,7.305 0.275,10.806 4.864,16.232 1.769,2.092 3.513,4.255 4.161,6.974 1.29,5.406 -1.792,11.026 4.316,14.484 2.363,1.338 4.69,2.178 6.044,4.678 1.955,3.61 0.955,7.852 3.383,11.367 0.377,0.546 -0.484,1.214 -0.923,0.712 -2.234,-2.549 -1.907,-5.339 -2.737,-8.449 -1.642,-6.156 -6.39,-5.545 -9.764,-9.588 -2.234,-2.676 -1.468,-5.813 -1.376,-9.017 0.181,-6.318 -3.638,-9.265 -7.046,-13.894 -5.853,-7.949 1.24,-16.547 -3.284,-24.654 -2.458,-4.403 -6.508,-7.553 -8.64,-12.193 -1.849,-4.027 -2.469,-8.311 -1.927,-12.687 0.075,-0.5918 0.979,-0.632 0.957,0 v 0"
         style="fill:#ffffff;fill-opacity:1;fill-rule:nonzero;stroke:none;stroke-width:0.1"
         id="path280" />
      <path
         d="m 445.10598,64.122988 h -40.206 l -5.372,50.951002 h 50.951 l -5.373,-50.951002"
         style="fill:#f7d22e;fill-opacity:1;fill-rule:nonzero;stroke:none;stroke-width:0.1"
         id="path282" />
      <path
         d="m 349.54698,64.122988 h -42.739 l -3.224,49.562002 h 49.186 l -3.223,-49.562002"
         style="fill:#d4d1c5;fill-opacity:1;fill-rule:nonzero;stroke:none;stroke-width:0.1"
         id="path284" />
      <path
         d="m 355.26298,122.81799 h -54.171 v -9.133 h 54.171 v 9.133"
         style="fill:#191b3e;fill-opacity:1;fill-rule:nonzero;stroke:none;stroke-width:0.1"
         id="path286" />
      <path
         d="m 351.33798,142.42799 h -46.321 l -3.224,-19.61 h 52.768 l -3.223,19.61"
         style="fill:#191b3e;fill-opacity:1;fill-rule:nonzero;stroke:none;stroke-width:0.1"
         id="path288" />
      <path
         d="m 311.13498,122.81799 h 34.0848 v 19.6102 h -34.0848 z"
         style="fill:#4941a1;fill-opacity:1;fill-rule:nonzero;stroke:none;stroke-width:0.1"
         id="path290" />
      <path
         d="m 541.31498,359.45899 c -7.848,-14.397 -10.126,-25.022 -16.308,-40.209 -1.337,-3.283 -6.07,-10.271 -7.18,-13.638 -1.238,-3.752 10.083,-8.757 14.38,-5.172 8.824,7.359 12.437,16.997 19.108,26.35 6.672,9.353 12.039,20.165 12.256,31.651 0.034,1.816 -0.077,3.699 -0.907,5.314 -5.049,9.838 -15.765,5.949 -21.349,-4.296"
         style="fill:#d4d1c5;fill-opacity:1;fill-rule:nonzero;stroke:none;stroke-width:0.1"
         id="path292" />
      <path
         d="m 500.56998,327.24599 c 2.875,-5.487 -2.149,-8.084 -6.429,-4.389 -3.544,3.058 -4.852,6.636 -4.405,10.449 2.399,-3.361 5.799,5.023 10.834,-6.06"
         style="fill:#e8907a;fill-opacity:1;fill-rule:nonzero;stroke:none;stroke-width:0.1"
         id="path294" />
      <path
         d="m 498.85298,311.17399 c -1.503,2.038 -7.328,9.128 -7.272,11.66 0,0 3.207,0.981 5.511,2.755 2.304,1.774 4.921,3.302 6.491,5.75 3.038,-5.094 4.261,-7 8.175,-9.209 3.952,-2.23 7.217,-1.591 11.544,-2.959 10.593,-3.35 17.496,-19.072 4.113,-21.319 -8.372,-1.405 -22.317,4.855 -28.562,13.322"
         style="fill:#d4d1c5;fill-opacity:1;fill-rule:nonzero;stroke:none;stroke-width:0.1"
         id="path296" />
      <path
         d="m 531.92698,304.01899 c -0.038,1.391 -0.011,2.86 -0.307,4.226 -0.295,1.359 -1.082,2.46 -1.821,3.61 -0.2,0.312 0.217,0.773 0.534,0.534 2.681,-2.021 2.694,-5.312 2.399,-8.37 -0.049,-0.507 -0.789,-0.527 -0.805,0 v 0"
         style="fill:#e3e0d6;fill-opacity:1;fill-rule:nonzero;stroke:none;stroke-width:0.1"
         id="path298" />
      <path
         d="m 528.31998,304.17699 c 0.862,2.374 0.03,4.222 -0.878,6.403 -0.15,0.359 0.37,0.759 0.68,0.523 2.194,-1.668 2.095,-4.995 0.956,-7.245 -0.209,-0.414 -0.919,-0.125 -0.758,0.319 v 0"
         style="fill:#e3e0d6;fill-opacity:1;fill-rule:nonzero;stroke:none;stroke-width:0.1"
         id="path300" />
      <path
         d="m 497.15598,360.64299 -10.516,-4.078 0.829,-2.135 10.515,4.077 -0.828,2.136"
         style="fill:#88aee0;fill-opacity:1;fill-rule:nonzero;stroke:none;stroke-width:0.1"
         id="path302" />
      <path
         d="m 496.67998,357.99399 14.791,-38.144 c 0.845,-2.178 -0.238,-4.633 -2.416,-5.478 -2.178,-0.844 -4.633,0.239 -5.477,2.417 l -14.791,38.144 7.893,3.061"
         style="fill:#bfdef5;fill-opacity:1;fill-rule:nonzero;stroke:none;stroke-width:0.1"
         id="path304" />
      <path
         d="m 502.08098,344.06399 9.39,-24.214 c 0.845,-2.178 -0.238,-4.633 -2.416,-5.478 -2.178,-0.844 -4.633,0.239 -5.477,2.417 l -9.39,24.214 7.893,3.061"
         style="fill:#a039a2;fill-opacity:1;fill-rule:nonzero;stroke:none;stroke-width:0.1"
         id="path306" />
      <path
         d="m 500.04398,338.78999 c 0.255,-0.657 -0.071,-1.397 -0.729,-1.652 -0.657,-0.256 -1.398,0.071 -1.652,0.729 -0.256,0.657 0.071,1.398 0.728,1.652 0.658,0.256 1.398,-0.071 1.653,-0.729"
         style="fill:#ffffff;fill-opacity:1;fill-rule:nonzero;stroke:none;stroke-width:0.1"
         id="path308" />
      <path
         d="m 504.16798,332.20899 c 0.336,-0.865 -0.093,-1.839 -0.959,-2.175 -0.866,-0.336 -1.839,0.094 -2.175,0.96 -0.336,0.865 0.093,1.839 0.96,2.175 0.865,0.336 1.839,-0.094 2.174,-0.96"
         style="fill:#ffffff;fill-opacity:1;fill-rule:nonzero;stroke:none;stroke-width:0.1"
         id="path310" />
      <path
         d="m 507.99998,321.18499 c 0.295,-0.761 -0.083,-1.619 -0.844,-1.914 -0.762,-0.295 -1.619,0.083 -1.914,0.845 -0.296,0.761 0.083,1.618 0.844,1.914 0.762,0.295 1.618,-0.083 1.914,-0.845"
         style="fill:#ffffff;fill-opacity:1;fill-rule:nonzero;stroke:none;stroke-width:0.1"
         id="path312" />
      <path
         d="m 504.68998,325.62899 c 0.192,-0.496 -0.054,-1.053 -0.55,-1.246 -0.496,-0.192 -1.054,0.054 -1.246,0.55 -0.192,0.496 0.054,1.054 0.55,1.246 0.496,0.193 1.053,-0.054 1.246,-0.55"
         style="fill:#ffffff;fill-opacity:1;fill-rule:nonzero;stroke:none;stroke-width:0.1"
         id="path314" />
      <path
         d="m 501.66898,336.27499 c 0.268,0.103 0.568,-0.029 0.671,-0.296 0.104,-0.267 -0.028,-0.568 -0.296,-0.671 -0.266,-0.104 -0.567,0.028 -0.671,0.295 -0.103,0.268 0.03,0.568 0.296,0.672"
         style="fill:#ffffff;fill-opacity:1;fill-rule:nonzero;stroke:none;stroke-width:0.1"
         id="path316" />
      <path
         d="m 507.03498,324.81899 c 0.267,0.103 0.567,-0.029 0.67,-0.297 0.104,-0.267 -0.028,-0.567 -0.295,-0.67 -0.267,-0.104 -0.568,0.028 -0.671,0.295 -0.104,0.268 0.029,0.568 0.296,0.672"
         style="fill:#ffffff;fill-opacity:1;fill-rule:nonzero;stroke:none;stroke-width:0.1"
         id="path318" />
      <path
         d="m 489.73598,333.30599 c 0.211,1.801 0.809,3.655 1.757,5.532 1.234,2.447 8.852,5.861 9.845,4.938 0.078,-1.226 -4.475,-3.46 -5.488,-5.447 1.565,-0.67 8.433,4.221 9.291,3.044 0.689,-1.438 -9.139,-6.107 -6.833,-6.101 3.205,0.797 8.387,3.892 8.313,2.092 -2.351,-1.905 -7.708,-4.466 -7.768,-5.478 1.278,0.424 6.943,2.413 5.902,1.042 -0.474,-0.627 -5.215,-3.343 -5.902,-3.493 -6.386,-2.276 -8.182,0.291 -9.117,3.871"
         style="fill:#e8907a;fill-opacity:1;fill-rule:nonzero;stroke:none;stroke-width:0.1"
         id="path320" />
      <path
         d="m 549.21298,421.19699 c -2.081,-2.062 -6.565,-5.035 -2.632,-11.709 1.209,-2.052 2.377,-4.223 1.95,-6.567 -0.637,-3.487 -0.26,-2.736 -1.717,-4.621 -1.667,-2.158 -3.955,-5.427 -0.847,-8.177 0.901,-0.797 5.694,-4.059 3.09,-7.375 -2.447,-3.117 -2.775,-7.854 -0.956,-11.375 1.289,-2.497 1.404,-4.336 2.578,-6.889 1.503,-3.268 0.817,-7.207 2.255,-10.505 0.316,-0.727 0.763,-1.439 1.454,-1.828 0.436,-0.245 0.939,-0.343 1.435,-0.403 3.875,-0.46 7.966,1.224 11.617,-0.154 2.93,-1.106 4.818,-3.913 7.322,-5.793 3.612,-2.712 8.376,-3.378 12.891,-3.232 4.985,0.162 10.141,1.302 14.003,4.459 3.861,3.157 4.421,7.058 6.194,11.72 2.86,7.518 -5.545,10.912 -4.75,16.377 0.579,3.984 4.098,7.197 3,9.81 -0.787,1.874 -1.576,3.434 -2.888,4.987 -3.1,3.671 -1.691,7.522 -0.53,9.836 1.161,2.313 1.637,5.251 0.197,7.403 -0.774,1.156 -1.991,1.927 -2.988,2.898 -1.565,1.524 -2.402,5.01 -2.135,7.178 1.43,11.6 -6.55,11.392 -8.621,12.395 -1.551,0.75 -0.503,6.245 -12.46,5.637 -4.804,-0.245 -8.215,-4.898 -15.575,-4.007 -10.866,1.318 -8.679,-6.887 -11.887,-10.065"
         style="fill:#ee1d5b;fill-opacity:1;fill-rule:nonzero;stroke:none;stroke-width:0.1"
         id="path322" />
      <path
         d="m 577.23398,79.244888 c 0.422,-2.9547 3.237,-9.7559 2.204,-10.8278 -1.177,-1.2222 -26.992,-2.525 -37.363,-0.9742 -4.937,0.5949 -4.025,3.6391 1.176,5.5461 2.838,1.041 7.084,1.5039 13.19,3.2379 3.729,-1.5207 20.793,3.018 20.793,3.018"
         style="fill:#191b3e;fill-opacity:1;fill-rule:nonzero;stroke:none;stroke-width:0.1"
         id="path324" />
      <path
         d="m 565.49798,88.844888 c 0,0 2.384,-7.8879 0,-9.618 -2.383,-1.7289 -9.057,-3 -9.057,-3 0,0 0.953,-2.384 3.654,-4.132 2.702,-1.7477 18.736,1.2 18.736,1.2 0,0 -2.527,7.9703 -2.845,14.5883 -0.318,6.6179 -10.806,4.3628 -10.488,0.9617"
         style="fill:#e8907a;fill-opacity:1;fill-rule:nonzero;stroke:none;stroke-width:0.1"
         id="path326" />
      <path
         d="m 602.27698,62.160888 c 0.823,-4.7527 -1.398,-7.941 -3.983,-9.0027 -2.985,-1.2262 -8.783,0.4617 -11.411,3.2359 -4.198,4.4309 -2.956,11.8168 -2.664,15.6289 0.296,3.8762 14.101,2.5211 15.465,-1.3391 1.945,-5.5 2.067,-5.4847 2.593,-8.523"
         style="fill:#191b3e;fill-opacity:1;fill-rule:nonzero;stroke:none;stroke-width:0.1"
         id="path328" />
      <path
         d="m 585.43098,87.365988 c 0,0 -1.015,-12.8219 -1.212,-15.343 -0.198,-2.5199 1.576,-8.2441 8.756,-7.6988 6.829,0.5179 8.016,3.5148 6.015,8.5797 -2.001,5.066 -3.812,7.7171 -3.839,16.0511 -0.027,8.3328 -9.055,5.243 -9.72,-1.589"
         style="fill:#e8907a;fill-opacity:1;fill-rule:nonzero;stroke:none;stroke-width:0.1"
         id="path330" />
      <path
         d="m 599.64698,157.15999 c 0.137,-14.69 -2.209,-52.3311 -1.993,-74.558102 -6.175,-3.6109 -14.24,-0.4309 -14.24,-0.4309 -1.946,26.473002 -4.493,47.912002 -7.428,75.098002 -1.985,18.375 -4.458,62.466 -7.151,75.325 -1.3,-0.315 0.648,-44.528 2.146,-67.222 1.902,-28.833 5.461,-41.676 6.571,-81.556002 -7.395,-2.195 -11.619,-1.2141 -13.538,0.6941 -3.09,21.750002 -11.834,58.674902 -14.778,80.384902 -4.495,33.158 -11.281,66.139 -5.276,99.059 10.012,-3.771 48.482,-0.572 59.019,-0.455 1.931,-9.54 1.188,-20.541 1.929,-30.326 0.988,-13.077 -5.261,-50.017 -5.261,-76.013"
         style="fill:#4941a1;fill-opacity:1;fill-rule:nonzero;stroke:none;stroke-width:0.1"
         id="path332" />
      <path
         d="m 574.10798,376.49799 35.162,-19.073 c 0,0 -14.473,-40.037 -13.479,-56.95 0.994,-16.914 0,-26.277 0,-26.277 l -52.977,5.828 c 0,0 -1.166,27.636 -0.646,43.068 0.52,15.431 8.511,41.39 8.511,41.39 l 23.429,12.014"
         style="fill:#5f58b1;fill-opacity:1;fill-rule:nonzero;stroke:none;stroke-width:0.1"
         id="path334" />
      <path
         d="m 586.37098,381.71999 c 0.778,-2.468 1.098,-5.985 1.702,-7.263 2.115,-4.477 -17.142,-14.125 -21.898,-12.744 -2.312,0.671 -5.695,6.583 -5.603,8.99 3.899,-0.43 4.062,2.061 6.018,5.462 1.131,1.965 1.571,4.241 1.992,6.469 0.684,3.611 1.368,7.222 2.051,10.833 0.089,0.468 0.197,0.972 0.555,1.286 0.338,0.297 0.818,0.353 1.266,0.394 3.033,0.282 14.055,5.304 13.917,2.059 -0.46,-10.846 -0.993,-12.336 0,-15.486"
         style="fill:#d07769;fill-opacity:1;fill-rule:nonzero;stroke:none;stroke-width:0.1"
         id="path336" />
      <path
         d="m 585.34198,364.58199 c 0,0 -7.799,-10.596 -19.655,-6.471 -11.856,4.126 -4.533,14.269 -4.533,14.269 l 5.493,4.305 c 0,0 -3.513,-5.483 -0.472,-14.972 0,0 16.046,11.267 19.167,8.691 3.121,-2.576 0,-5.822 0,-5.822"
         style="fill:#5f58b1;fill-opacity:1;fill-rule:nonzero;stroke:none;stroke-width:0.1"
         id="path338" />
      <path
         d="m 609.26998,364.82299 c 1.538,-1.405 0,-39.303 -4.257,-45.573 -4.145,-6.106 -4.991,-33.356 -2.648,-40.355 15.692,-46.882 15.692,-68.566 15.692,-90.164 -13.447,-4.461 -36.422,-6.995 -50.413,-4.767 -0.259,12.289 -2.367,20.997 -4.321,33.132 -1.231,7.64 -6.357,88.312 -0.917,113.859 0.328,1.539 10.851,24.799 15.914,34.522 3.301,6.342 4.539,12.662 10.87,9.718 6.007,-2.793 15.196,-5.913 20.08,-10.372"
         style="fill:#e3e0d6;fill-opacity:1;fill-rule:nonzero;stroke:none;stroke-width:0.1"
         id="path340" />
      <path
         d="m 562.94298,373.78199 c -5.805,-0.827 -13.707,-4.83 -15.014,-6.86 -1.824,-2.834 -0.975,-8.398 -1.962,-12.878 -3.449,-15.658 -10.192,-14.932 -10.192,-25.725 0,-13.134 5.54,-20.276 6.26,-43.246 0.62,-19.784 -14.62,-50.343 -7.234,-98.011 11.181,-2.223 15.427,-2.574 26.123,-2.574 -0.12,6.655 0,17.41 2.399,34.901 2.406,17.54 1.532,45.678 1.798,52.174 0.936,22.932 1.002,32.073 -2.932,55.47 -2.66,15.819 0.558,32.029 0.754,46.749"
         style="fill:#e3e0d6;fill-opacity:1;fill-rule:nonzero;stroke:none;stroke-width:0.1"
         id="path342" />
      <path
         d="m 560.27098,306.33299 c 0.135,-14.501 0.313,-29.01 0.789,-43.504 0.474,-14.442 2.252,-29.012 2.263,-43.44 10e-4,-1.01 -1.64,-1.304 -1.82,-0.246 -2.371,13.918 -2.07,28.749 -2.514,42.834 -0.465,14.784 -0.759,29.578 0.013,44.356 0.043,0.81 1.261,0.821 1.269,0 v 0"
         style="fill:#d4d1c5;fill-opacity:1;fill-rule:nonzero;stroke:none;stroke-width:0.1"
         id="path344" />
      <path
         d="m 594.87798,244.62299 c -3.112,-0.063 -6.223,-0.138 -9.336,-0.189 -2.701,-0.044 -5.576,-0.418 -8.184,0.323 -0.65,0.184 -0.65,1.132 0,1.317 2.589,0.736 5.504,0.368 8.184,0.323 3.113,-0.052 6.224,-0.127 9.336,-0.189 1.02,-0.021 1.022,-1.564 0,-1.585 v 0"
         style="fill:#d4d1c5;fill-opacity:1;fill-rule:nonzero;stroke:none;stroke-width:0.1"
         id="path346" />
      <path
         d="m 548.63298,246.68499 c -3.064,-0.415 -6.429,-0.52 -9.492,-0.106 -0.908,0.123 -0.908,1.711 0,1.834 3.063,0.414 6.428,0.309 9.492,-0.105 0.804,-0.11 0.804,-1.514 0,-1.623 v 0"
         style="fill:#d4d1c5;fill-opacity:1;fill-rule:nonzero;stroke:none;stroke-width:0.1"
         id="path348" />
      <path
         d="m 586.20398,332.92999 c -2.001,0.139 -3.981,0.439 -5.9,1.039 -1.501,0.47 -3.529,0.942 -4.381,2.343 -0.289,0.476 0.092,1.013 0.6,1.046 1.509,0.098 2.903,-0.977 4.313,-1.455 1.748,-0.593 3.537,-1.014 5.368,-1.241 1.077,-0.134 1.134,-1.81 0,-1.732 v 0"
         style="fill:#d4d1c5;fill-opacity:1;fill-rule:nonzero;stroke:none;stroke-width:0.1"
         id="path350" />
      <path
         d="m 575.65198,354.04399 c -1.899,4.535 -0.132,6.425 -3.137,10.317 -2.275,-2.083 -4.552,-4.167 -6.828,-6.25 -0.459,2.269 -1.08,4.504 -1.856,6.685 -2.528,-2.249 -3.477,-4.566 -5.677,-7.135 -1.188,4.186 -1.787,7.682 0,12.47 1.842,4.934 4.784,6.367 8.493,6.554 -0.534,-4.46 -0.026,-9.043 1.474,-13.278 3.88,2.363 14.539,11.718 18.25,18.313 0,0 4.835,-4.355 4.835,-7.464 0,-3.748 -12.289,-16.595 -15.554,-20.212"
         style="fill:#4941a1;fill-opacity:1;fill-rule:nonzero;stroke:none;stroke-width:0.1"
         id="path352" />
      <path
         d="m 544.59998,362.19099 c 1.509,-5.891 -2.044,-11.89 -7.935,-13.399 -5.891,-1.508 -11.89,2.044 -13.399,7.935 -1.509,5.892 2.044,11.891 7.935,13.399 5.891,1.509 11.89,-2.044 13.399,-7.935"
         style="fill:#191b3e;fill-opacity:1;fill-rule:nonzero;stroke:none;stroke-width:0.1"
         id="path354" />
      <path
         d="m 542.84698,331.30399 -3.195,-0.818 -4.963,19.374 3.195,0.818 4.963,-19.374"
         style="fill:#191b3e;fill-opacity:1;fill-rule:nonzero;stroke:none;stroke-width:0.1"
         id="path356" />
      <path
         d="m 542.57798,361.67299 c 1.222,-4.774 -1.657,-9.635 -6.431,-10.858 -4.775,-1.223 -9.636,1.656 -10.859,6.43 -1.222,4.774 1.657,9.636 6.431,10.859 4.775,1.223 9.636,-1.656 10.859,-6.431"
         style="fill:#bfdef5;fill-opacity:1;fill-rule:nonzero;stroke:none;stroke-width:0.1"
         id="path358" />
      <path
         d="m 536.31198,340.75599 2.735,-10.68 c 0.321,-1.25 1.593,-2.004 2.843,-1.683 1.25,0.319 2.003,1.592 1.684,2.842 l -2.737,10.68 -4.525,-1.159"
         style="fill:#f7d22e;fill-opacity:1;fill-rule:nonzero;stroke:none;stroke-width:0.1"
         id="path360" />
      <path
         d="m 528.16998,357.79099 c 1.97,-1.166 3.939,-2.332 5.909,-3.498 0.957,-0.566 1.836,0.918 0.878,1.485 -1.968,1.166 -3.938,2.333 -5.907,3.499 -0.957,0.567 -1.837,-0.919 -0.88,-1.486 v 0"
         style="fill:#ffffff;fill-opacity:1;fill-rule:nonzero;stroke:none;stroke-width:0.1"
         id="path362" />
      <path
         d="m 529.39898,362.56099 c 3.063,-1.814 6.127,-3.628 9.189,-5.442 0.957,-0.567 1.837,0.918 0.88,1.485 -3.063,1.814 -6.126,3.628 -9.189,5.442 -0.957,0.567 -1.837,-0.918 -0.88,-1.485 v 0"
         style="fill:#ffffff;fill-opacity:1;fill-rule:nonzero;stroke:none;stroke-width:0.1"
         id="path364" />
      <path
         d="m 533.75898,364.23399 c 1.05,-0.622 2.101,-1.243 3.151,-1.865 0.957,-0.567 1.836,0.918 0.879,1.485 -1.049,0.622 -2.1,1.244 -3.15,1.866 -0.957,0.566 -1.837,-0.919 -0.88,-1.486 v 0"
         style="fill:#ffffff;fill-opacity:1;fill-rule:nonzero;stroke:none;stroke-width:0.1"
         id="path366" />
      <path
         d="m 539.93498,335.82999 c -0.501,0.241 -8.523,0.254 -8.388,1.418 0.109,0.939 7.463,0.795 6.128,0.938 -4.789,0.512 -8.975,1.231 -7.929,1.903 1.557,1.033 5.651,0.375 8.659,0.794 -1.591,0.73 -3.697,0.554 -5.315,0.636 -1.617,0.082 -5.988,0.173 -4.53,1.449 2.515,0.539 6.722,1.073 9.273,0.752 -1.486,1.611 -9.53,1.356 -7.027,3.179 2.813,0.036 5.625,0.091 8.439,0.109 1.835,0.012 3.735,-1.164 4.233,-1.658 1.905,-1.89 3.621,-5.364 4.895,-7.784 1.489,-2.827 8.187,-6.227 13.127,-10.348 4.568,-6.917 1.359,-13.513 -4.473,-8.939 -2.364,1.854 -6.203,8.227 -9.485,10.796 -1.742,1.363 -3.565,0.603 -4.688,1.797 -0.932,0.992 -2.567,4.788 -2.919,4.958"
         style="fill:#e8907a;fill-opacity:1;fill-rule:nonzero;stroke:none;stroke-width:0.1"
         id="path368" />
      <path
         d="m 610.54798,325.34799 c -4.491,-13.631 -4.789,-17.305 -12.633,-29.38 -2.545,-3.918 -5.482,-6.254 -11.658,-4.266 -5.007,1.612 -28.72,20.226 -38.156,27.879 3.785,5.231 6.023,8.928 8.926,14.696 10.508,-7.712 19.181,-13.137 30.558,-19.496 1.654,10.166 6.415,55.692 18.946,52.141 5.797,-1.643 8.897,-7.84 9.022,-13.962 0.122,-5.952 -1.116,-15.81 -5.005,-27.612"
         style="fill:#f1ede4;fill-opacity:1;fill-rule:nonzero;stroke:none;stroke-width:0.1"
         id="path370" />
      <path
         d="m 553.26498,319.24999 c 0,-1.039 0.842,-1.881 1.881,-1.881 1.039,0 1.881,0.842 1.881,1.881 0,1.039 -0.842,1.881 -1.881,1.881 -1.039,0 -1.881,-0.842 -1.881,-1.881"
         style="fill:#d4d1c5;fill-opacity:1;fill-rule:nonzero;stroke:none;stroke-width:0.1"
         id="path372" />
      <path
         d="m 560.14498,314.48099 c 0,-1.039 0.842,-1.881 1.881,-1.881 1.039,0 1.881,0.842 1.881,1.881 0,1.039 -0.842,1.881 -1.881,1.881 -1.039,0 -1.881,-0.842 -1.881,-1.881"
         style="fill:#d4d1c5;fill-opacity:1;fill-rule:nonzero;stroke:none;stroke-width:0.1"
         id="path374" />
      <path
         d="m 589.41498,313.36999 c 2.634,-3.619 5.38,-9.168 4.371,-13.767 -0.209,-0.959 -1.468,-0.772 -1.763,0 -0.765,2.004 -0.906,4.225 -1.523,6.288 -0.676,2.263 -1.699,4.39 -2.874,6.433 -0.679,1.18 1.02,2.103 1.789,1.046 v 0"
         style="fill:#e3e0d6;fill-opacity:1;fill-rule:nonzero;stroke:none;stroke-width:0.1"
         id="path376" />
      <path
         d="m 586.85098,311.82499 c 1.575,-4.91 1.94,-11.009 -0.943,-15.506 -0.455,-0.708 -1.56,-0.26 -1.36,0.573 1.215,5.046 2.28,9.367 0.915,14.55 -0.237,0.9 1.106,1.262 1.388,0.383 v 0"
         style="fill:#e3e0d6;fill-opacity:1;fill-rule:nonzero;stroke:none;stroke-width:0.1"
         id="path378" />
      <path
         d="m 586.34598,393.56699 c -1.085,-7.394 -6.835,-12.374 -11.174,-15.152 -4.339,-2.779 -6.873,-4.775 -11.113,-1.848 -1.75,1.208 -5.101,4.738 -6.099,6.615 -1.996,3.756 -2.872,5.92 -3.471,10.131 -0.738,5.182 0.859,8.832 -0.354,15.262 -0.971,5.143 -1.185,9.208 1.384,13.767 4.22,7.488 16.017,7.052 23.169,5.86 3.224,-0.538 6.183,-2.713 8.041,-5.403 5.704,-8.263 1.565,-15.958 -0.383,-29.232"
         style="fill:#e8907a;fill-opacity:1;fill-rule:nonzero;stroke:none;stroke-width:0.1"
         id="path380" />
      <path
         d="m 572.02198,392.80799 c 0.842,-0.231 1.9,-0.335 2.761,-0.151 1.325,0.284 1.326,2.398 0,2.682 -0.863,0.184 -1.916,0.081 -2.761,-0.151 -1.174,-0.322 -1.176,-2.058 0,-2.38 v 0"
         style="fill:#e9715c;fill-opacity:1;fill-rule:nonzero;stroke:none;stroke-width:0.1"
         id="path382" />
      <path
         d="m 557.09698,392.21899 c 0.439,-0.019 0.876,-0.039 1.314,-0.058 0.89,-0.039 1.559,0.833 1.446,1.668 -0.124,0.914 -0.967,1.4 -1.838,1.224 -0.424,-0.085 -0.847,-0.171 -1.271,-0.256 -0.631,-0.128 -1.03,-0.839 -0.94,-1.44 0.1,-0.658 0.621,-1.109 1.289,-1.138 v 0"
         style="fill:#e9715c;fill-opacity:1;fill-rule:nonzero;stroke:none;stroke-width:0.1"
         id="path384" />
      <path
         d="m 579.68098,420.05799 c -0.993,-6.476 5.298,-7.111 3.937,-11.205 -1.692,-5.084 0.145,-7.385 3.143,-10.614 0.747,-0.805 2.04,-0.524 3.137,-0.582 1.446,-0.076 2.895,0.694 4.302,0.347 1.127,6.725 2.087,13.615 0.934,20.337 -0.56,3.27 -8.246,10.661 -8.604,10.761 -0.366,0.103 -26.759,2.91 -30.665,-1.363 -3.004,-3.288 -4.234,-7.855 -4.537,-12.298 -0.129,-1.882 0.333,-4.22 2.637,-3.845 2.014,0.327 4.217,2.206 6.122,1.434 5.299,-2.149 4.617,5.638 11.402,3.573 3.981,-1.212 7.435,2.768 8.192,3.455"
         style="fill:#ee1d5b;fill-opacity:1;fill-rule:nonzero;stroke:none;stroke-width:0.1"
         id="path386" />
      <path
         d="m 590.48298,403.55999 c 2.223,-1.446 2.223,-4.352 1.574,-6.755 -0.649,-2.404 -3.137,-4.536 -5.625,-4.64 -3.31,-0.138 -2.884,3.771 -2.674,6.052 0.573,6.237 4.161,7.01 6.725,5.343"
         style="fill:#e8907a;fill-opacity:1;fill-rule:nonzero;stroke:none;stroke-width:0.1"
         id="path388" />
      <path
         d="m 570.00098,400.33899 c 0,-1.46 0.691,-2.643 1.544,-2.643 0.853,0 1.544,1.183 1.544,2.643 0,1.459 -0.691,2.643 -1.544,2.643 -0.853,0 -1.544,-1.184 -1.544,-2.643"
         style="fill:#191b3e;fill-opacity:1;fill-rule:nonzero;stroke:none;stroke-width:0.1"
         id="path390" />
      <path
         d="m 557.42298,400.33899 c 0,-1.46 0.692,-2.643 1.544,-2.643 0.853,0 1.544,1.183 1.544,2.643 0,1.459 -0.691,2.643 -1.544,2.643 -0.852,0 -1.544,-1.184 -1.544,-2.643"
         style="fill:#191b3e;fill-opacity:1;fill-rule:nonzero;stroke:none;stroke-width:0.1"
         id="path392" />
      <path
         d="m 586.50098,401.89499 c 0.845,0.873 2.09,0.91 3.104,0.261 1.163,-0.743 1.566,-2.216 1.474,-3.529 -0.103,-1.496 -1.15,-5.076 -3.194,-4.582 -0.231,0.056 -0.4,0.387 -0.242,0.596 0.362,0.476 0.888,0.733 1.245,1.223 0.375,0.513 0.591,1.145 0.755,1.753 0.428,1.589 -0.14,5.093 -2.57,3.537 -0.459,-0.294 -0.939,0.362 -0.572,0.741 v 0"
         style="fill:#d07769;fill-opacity:1;fill-rule:nonzero;stroke:none;stroke-width:0.1"
         id="path394" />
      <path
         d="m 585.79798,399.22599 c 1.155,0.411 2.282,-0.105 2.284,-1.429 0.002,-1.271 -0.801,-2.417 -2.042,-2.735 -0.448,-0.115 -0.645,0.46 -0.299,0.71 0.533,0.387 1.032,1.159 1.16,1.807 0.137,0.694 -0.194,0.834 -0.825,0.642 -0.65,-0.196 -0.903,0.783 -0.278,1.005 v 0"
         style="fill:#d07769;fill-opacity:1;fill-rule:nonzero;stroke:none;stroke-width:0.1"
         id="path396" />
      <path
         d="m 564.22298,399.43399 c -0.041,-3.323 -0.935,-6.104 -2.245,-9.131 -0.195,-0.452 0.018,-1.106 0.614,-1.07 0.942,0.058 1.858,-0.08 2.794,-0.149 0.479,-0.035 0.66,0.686 0.244,0.902 -0.971,0.506 -1.949,0.621 -3.038,0.669 0.204,-0.357 0.409,-0.713 0.613,-1.07 1.332,3.108 2.861,6.554 2.046,9.988 -0.138,0.583 -1.021,0.445 -1.028,-0.139 v 0"
         style="fill:#d07769;fill-opacity:1;fill-rule:nonzero;stroke:none;stroke-width:0.1"
         id="path398" />
      <path
         d="m 561.95198,385.42099 c 3.186,-1.556 6.938,-1.468 9.392,1.381 0.414,0.482 -0.098,1.152 -0.673,0.871 -1.18,-0.575 -2.105,-1.524 -3.395,-1.911 -1.71,-0.513 -3.323,0.043 -4.957,0.53 -0.508,0.151 -0.861,-0.63 -0.367,-0.871 v 0"
         style="fill:#d07769;fill-opacity:1;fill-rule:nonzero;stroke:none;stroke-width:0.1"
         id="path400" />
      <path
         d="m 569.13198,407.19999 c 0.801,0.237 1.452,0.798 2.294,0.995 1.556,0.366 2.651,-0.263 3.983,-0.971 0.43,-0.229 0.766,0.286 0.492,0.638 -0.981,1.257 -2.679,1.689 -4.212,1.451 -0.993,-0.153 -2.435,-0.611 -3.051,-1.47 -0.226,-0.317 0.149,-0.746 0.494,-0.643 v 0"
         style="fill:#ee1d5b;fill-opacity:1;fill-rule:nonzero;stroke:none;stroke-width:0.1"
         id="path402" />
      <path
         d="m 562.64298,407.84299 c -0.617,0.862 -2.056,1.317 -3.05,1.47 -1.534,0.238 -3.231,-0.194 -4.212,-1.451 -0.272,-0.35 0.059,-0.869 0.492,-0.638 1.328,0.705 2.427,1.337 3.983,0.971 0.841,-0.197 1.494,-0.758 2.293,-0.995 0.345,-0.102 0.722,0.325 0.494,0.643 v 0"
         style="fill:#ee1d5b;fill-opacity:1;fill-rule:nonzero;stroke:none;stroke-width:0.1"
         id="path404" />
      <path
         d="m 583.22598,422.47699 c -1.441,-2.441 -0.084,-5.323 2.049,-6.668 2.057,-1.298 2.892,-2.913 2.837,-5.436 -0.039,-1.74 -1.18,-4.111 0.785,-5.106 0.349,-0.177 0.747,0.185 0.545,0.545 -1.591,2.843 0.659,6.469 -1.564,9.301 -1.667,2.123 -5.951,2.967 -3.87,6.906 0.273,0.515 -0.484,0.963 -0.782,0.458 v 0"
         style="fill:#ef2975;fill-opacity:1;fill-rule:nonzero;stroke:none;stroke-width:0.1"
         id="path406" />
      <path
         d="m 586.77298,424.24399 c 1.779,-0.794 3.955,-1.5 4.992,-3.335 1.311,-2.318 0.409,-6.106 1.205,-8.774 1.072,-3.596 4.745,-6.559 2.942,-10.353 -0.257,-0.543 0.422,-1.181 0.884,-0.682 3.416,3.695 -1.551,7.743 -2.631,11.365 -0.969,3.255 0.542,7.091 -1.75,9.879 -1.351,1.643 -3.324,2.183 -5.245,2.842 -0.545,0.187 -0.933,-0.703 -0.397,-0.942 v 0"
         style="fill:#ef2975;fill-opacity:1;fill-rule:nonzero;stroke:none;stroke-width:0.1"
         id="path408" />
      <path
         d="m 552.36198,418.24799 c 4.671,-2.508 7.019,0.352 10.591,2.694 2.701,1.772 4.99,-0.378 7.817,0.117 2.741,0.48 4.756,4.166 7.871,2.526 0.472,-0.248 0.871,0.432 0.418,0.715 -1.309,0.817 -2.106,0.93 -3.528,0.509 -3.095,-0.916 -3.331,-3.284 -7.504,-2.629 -1.882,0.295 -2.966,1.071 -4.742,0.193 -3.852,-1.902 -5.005,-6.006 -10.577,-3.532 -0.394,0.176 -0.745,-0.38 -0.346,-0.593 v 0"
         style="fill:#ef2975;fill-opacity:1;fill-rule:nonzero;stroke:none;stroke-width:0.1"
         id="path410" />
      <path
         d="m 554.66998,425.81599 c 1.545,-0.9 3.551,-1.998 5.416,-1.604 1.191,0.251 1.339,0.678 2.324,1.307 2.488,1.591 3.771,2.561 6.691,1.654 5.281,-1.64 5.351,5.38 11.24,2.7 0.249,-0.114 0.58,0.217 0.321,0.416 -4.442,3.436 -5.607,-1.13 -9.278,-2.161 -2.119,-0.594 -3.523,1.121 -5.674,0.792 -0.695,-0.106 -1.324,-0.453 -1.902,-0.829 -1.891,-1.228 -1.58,-1.827 -4.054,-2.396 -2.148,-0.494 -2.868,-0.276 -4.72,0.741 -0.407,0.223 -0.764,-0.387 -0.364,-0.62 v 0"
         style="fill:#ef2975;fill-opacity:1;fill-rule:nonzero;stroke:none;stroke-width:0.1"
         id="path412" />
      <path
         d="m 592.05898,390.90999 c -0.976,-1.226 -1.807,-2.601 -0.667,-3.992 0.954,-1.164 2.415,-1.375 2.785,-3.107 0.362,-1.699 -0.559,-3.238 -0.737,-4.881 -0.041,-0.38 0.477,-0.431 0.655,-0.178 1.068,1.525 1.501,3.832 0.974,5.641 -0.206,0.707 -0.558,1.34 -1.087,1.853 -1.219,1.18 -2.979,1.863 -1.26,4.153 0.284,0.379 -0.364,0.886 -0.663,0.511 v 0"
         style="fill:#ef2975;fill-opacity:1;fill-rule:nonzero;stroke:none;stroke-width:0.1"
         id="path414" />
      <path
         d="m 598.35898,396.63799 c -3.372,-3.179 -2.558,-5.607 -0.412,-8.919 1.526,-2.356 0.865,-4.616 0.154,-7.168 -0.27,-0.967 -0.649,-1.856 -0.54,-2.875 0.199,-1.865 1.519,-3.133 2.93,-4.253 0.505,-0.402 1.156,0.216 0.718,0.718 -1.037,1.19 -2.374,2.203 -2.545,3.972 -0.046,0.474 1.01,3.062 1.149,3.497 0.454,1.429 0.851,2.42 0.486,3.906 -1.055,4.293 -6.529,5.357 -1.41,10.592 0.339,0.346 -0.179,0.861 -0.53,0.53 v 0"
         style="fill:#ef2975;fill-opacity:1;fill-rule:nonzero;stroke:none;stroke-width:0.1"
         id="path416" />
      <path
         d="m 551.56398,389.71799 c -0.389,0.593 -0.851,1.194 -1.155,1.836 -1.337,2.817 -0.7,4.2 0.569,6.655 0.768,1.488 1.74,2.771 1.934,4.489 0.323,2.874 -1.409,5.716 -2.729,8.124 -0.166,0.303 -0.701,0.095 -0.571,-0.241 1.316,-3.402 2.945,-6.268 1.665,-10.126 -0.552,-1.665 -2.198,-2.854 -2.589,-4.614 -0.514,-2.315 0.763,-4.954 2.41,-6.483 0.237,-0.22 0.658,0.067 0.466,0.36 v 0"
         style="fill:#ef2975;fill-opacity:1;fill-rule:nonzero;stroke:none;stroke-width:0.1"
         id="path418" />
      <path
         d="m 552.66798,382.77599 c 0.139,-2.908 -3.144,-7.707 0.293,-9.864 0.37,-0.232 0.914,0.253 0.631,0.631 -2.171,2.897 0.036,6.046 -0.479,9.293 -0.04,0.252 -0.457,0.193 -0.445,-0.06 v 0"
         style="fill:#ef2975;fill-opacity:1;fill-rule:nonzero;stroke:none;stroke-width:0.1"
         id="path420" />
      <path
         d="m 556.02698,379.74899 c -0.569,-1.429 -0.59,-3.657 0.815,-4.632 0.248,-0.172 0.522,0.111 0.471,0.361 -0.128,0.634 -0.437,1.211 -0.555,1.849 -0.134,0.726 -0.09,1.483 0.098,2.194 0.144,0.547 -0.629,0.73 -0.829,0.228 v 0"
         style="fill:#ef2975;fill-opacity:1;fill-rule:nonzero;stroke:none;stroke-width:0.1"
         id="path422" />
    </g>
  </g>
</svg>
